<?xml version="1.0" encoding="UTF-8"?>
<!DOCTYPE svg PUBLIC "-//W3C//DTD SVG 1.1//EN" "http://www.w3.org/Graphics/SVG/1.1/DTD/svg11.dtd">
<svg xmlns="http://www.w3.org/2000/svg" version="1.1" width="60px" height="60px" style="shape-rendering:geometricPrecision; text-rendering:geometricPrecision; image-rendering:optimizeQuality; fill-rule:evenodd; clip-rule:evenodd" xmlns:xlink="http://www.w3.org/1999/xlink">
<g><path style="opacity:0.988" fill="#ef8f1b" d="M 25.5,6.5 C 44.8414,6.67309 53.3414,16.3398 51,35.5C 46.0338,48.5728 36.5338,53.7394 22.5,51C 10.539,46.2561 5.37233,37.4228 7,24.5C 9.78937,14.8753 15.956,8.87532 25.5,6.5 Z"/></g>
<g><path style="opacity:1" fill="#fef5ea" d="M 28.5,15.5 C 29.9986,16.6782 30.9986,18.3449 31.5,20.5C 32.4287,19.3112 32.762,17.9778 32.5,16.5C 33.5,16.5 34.5,16.5 35.5,16.5C 35.5792,17.9305 35.2458,19.2638 34.5,20.5C 36.7054,21.8707 38.372,23.704 39.5,26C 39.2231,27.8916 38.2231,29.2249 36.5,30C 39.9823,37.047 37.6489,40.2137 29.5,39.5C 29.5,40.5 29.5,41.5 29.5,42.5C 28.325,42.719 27.325,42.3857 26.5,41.5C 27.5896,40.3914 27.5896,39.3914 26.5,38.5C 25.6143,39.325 25.281,40.325 25.5,41.5C 24.5,41.5 23.5,41.5 22.5,41.5C 22.5,39.8333 22.5,38.1667 22.5,36.5C 21.0222,36.762 19.6888,36.4287 18.5,35.5C 19.3202,33.8888 20.6536,33.2222 22.5,33.5C 23.1906,29.4043 24.1906,25.4043 25.5,21.5C 24.5,21.5 23.5,21.5 22.5,21.5C 22.5,20.5 22.5,19.5 22.5,18.5C 24.5,18.8333 26.5,19.1667 28.5,19.5C 28.5,18.1667 28.5,16.8333 28.5,15.5 Z"/></g>
<g><path style="opacity:1" fill="#f89d34" d="M 29.5,23.5 C 33.1378,22.7366 34.6378,24.0699 34,27.5C 29.421,29.4183 27.921,28.085 29.5,23.5 Z"/></g>
<g><path style="opacity:1" fill="#f79a2e" d="M 27.5,30.5 C 31.5601,29.8482 33.5601,31.5149 33.5,35.5C 31.1667,35.5 28.8333,35.5 26.5,35.5C 26.366,33.7085 26.6993,32.0418 27.5,30.5 Z"/></g>
</svg>
