<?xml version="1.0" encoding="UTF-8"?>
<!DOCTYPE svg PUBLIC "-//W3C//DTD SVG 1.1//EN" "http://www.w3.org/Graphics/SVG/1.1/DTD/svg11.dtd">
<svg xmlns="http://www.w3.org/2000/svg" version="1.1" width="60px" height="60px" style="shape-rendering:geometricPrecision; text-rendering:geometricPrecision; image-rendering:optimizeQuality; fill-rule:evenodd; clip-rule:evenodd" xmlns:xlink="http://www.w3.org/1999/xlink">
<g><path style="opacity:0.71" fill="#000000" d="M 5.5,13.5 C 21.5035,13.3334 37.5035,13.5001 53.5,14C 54.8182,24.1058 54.8182,34.2725 53.5,44.5C 37.5,45.8333 21.5,45.8333 5.5,44.5C 4.19291,34.1059 4.19291,23.7726 5.5,13.5 Z M 7.5,15.5 C 22.1705,15.3334 36.8371,15.5001 51.5,16C 51.9574,16.414 52.2907,16.914 52.5,17.5C 37.1667,18.8333 21.8333,18.8333 6.5,17.5C 6.86273,16.8165 7.19607,16.1499 7.5,15.5 Z M 6.5,25.5 C 21.8333,25.5 37.1667,25.5 52.5,25.5C 52.5,31.1667 52.5,36.8333 52.5,42.5C 37.1667,42.5 21.8333,42.5 6.5,42.5C 6.5,36.8333 6.5,31.1667 6.5,25.5 Z"/></g>
<g><path style="opacity:0.731" fill="#000000" d="M 10.5,27.5 C 15.5111,27.3341 20.5111,27.5007 25.5,28C 26.435,30.3806 26.7683,32.8806 26.5,35.5C 19.8333,35.8333 19.8333,36.1667 26.5,36.5C 26.5,37.8333 26.5,39.1667 26.5,40.5C 20.8333,40.5 15.1667,40.5 9.5,40.5C 9.5,39.1667 9.5,37.8333 9.5,36.5C 16.1667,36.1667 16.1667,35.8333 9.5,35.5C 9.27863,32.7212 9.61197,30.0545 10.5,27.5 Z"/></g>
<g><path style="opacity:0.426" fill="#000000" d="M 28.5,31.5 C 35.5,31.5 42.5,31.5 49.5,31.5C 49.5,32.5 49.5,33.5 49.5,34.5C 42.5,34.5 35.5,34.5 28.5,34.5C 28.5,33.5 28.5,32.5 28.5,31.5 Z"/></g>
<g><path style="opacity:0.593" fill="#000000" d="M 28.5,35.5 C 32.5546,35.1758 36.5546,35.5091 40.5,36.5C 38.5,36.8333 36.5,37.1667 34.5,37.5C 32.0478,37.4609 30.0478,36.7943 28.5,35.5 Z"/></g>
</svg>
