<?xml version="1.0" encoding="UTF-8"?>
<svg version="1.1" xmlns="http://www.w3.org/2000/svg" width="500" height="500">
<path d="M0 0 C165 0 330 0 500 0 C500 165 500 330 500 500 C335 500 170 500 0 500 C0 335 0 170 0 0 Z " fill="#FEFEFE" transform="translate(0,0)"/>
<path d="M0 0 C13.41883812 10.38099021 20.78179913 23.29974137 28.1875 38.25 C32.6425 37.755 32.6425 37.755 37.1875 37.25 C36.17799331 43.80046791 34.46403729 50.10465108 32.75 56.5 C32.28110352 58.294375 32.28110352 58.294375 31.80273438 60.125 C31.49787109 61.26453125 31.19300781 62.4040625 30.87890625 63.578125 C30.60248291 64.6187207 30.32605957 65.65931641 30.04125977 66.73144531 C29.1875 69.25 29.1875 69.25 27.1875 71.25 C23.60330961 67.76385738 20.12632475 64.23845345 16.875 60.4375 C12.57946642 55.44565846 7.88389902 50.86135356 3.1875 46.25 C3.5175 45.59 3.8475 44.93 4.1875 44.25 C6.25390625 43.8359375 6.25390625 43.8359375 8.75 43.625 C9.57628906 43.55023438 10.40257812 43.47546875 11.25390625 43.3984375 C11.89199219 43.34945312 12.53007812 43.30046875 13.1875 43.25 C8.22140298 33.12996304 3.44700692 24.12498612 -4.8125 16.25 C-5.61880859 15.4146875 -5.61880859 15.4146875 -6.44140625 14.5625 C-17.73144709 3.69689679 -34.53817447 -0.70597284 -49.75 -1.0625 C-67.68730197 -0.70808569 -82.94937568 6.71806849 -95.734375 19.11328125 C-106.96610617 31.11533027 -112.14895298 45.99309789 -112.8125 62.25 C-118.61740113 59.77577985 -123.00280061 55.17633541 -126.8125 50.25 C-127.24462961 46.48429908 -127.11363361 45.57511922 -125.8125 42.25 C-125.49152344 41.27160156 -125.17054688 40.29320312 -124.83984375 39.28515625 C-120.46862889 26.82348947 -114.1298017 16.58267678 -104.8125 7.25 C-104.05195313 6.47785156 -103.29140625 5.70570313 -102.5078125 4.91015625 C-93.27064874 -3.94843523 -82.09680638 -10.1537248 -69.8125 -13.75 C-68.63558594 -14.10578125 -67.45867187 -14.4615625 -66.24609375 -14.828125 C-42.89919245 -20.51701582 -19.27353506 -13.15973945 0 0 Z " fill="#060606" transform="translate(298.8125,186.75)"/>
<path d="M0 0 C0.66 0 1.32 0 2 0 C3.42993164 1.45556641 3.42993164 1.45556641 5.09765625 3.4765625 C9.63806467 8.81863494 14.62803839 13.64722318 19.65429688 18.52734375 C20.34458984 19.20667969 21.03488281 19.88601563 21.74609375 20.5859375 C22.37185303 21.1948584 22.9976123 21.8037793 23.64233398 22.43115234 C25 24 25 24 25 26 C22.03 26.66 19.06 27.32 16 28 C18.59366298 35.57156274 22.13351957 41.66500015 27 48 C27.69222656 48.94166016 27.69222656 48.94166016 28.3984375 49.90234375 C37.1936534 61.11243107 51.33169384 67.88191766 65 71 C75.82100545 71.90211188 87.89584449 72.35750846 98 68 C98.60505371 67.74186523 99.21010742 67.48373047 99.83349609 67.21777344 C109.20261429 63.13165234 116.87539837 58.46647311 124 51 C124.55816406 50.46117187 125.11632812 49.92234375 125.69140625 49.3671875 C135.73391595 38.93136802 140.20185298 22.94445386 142 9 C147.16764434 11.58382217 151.57499732 15.3585606 155 20 C155.1875 23.375 155.1875 23.375 154 27 C153.84015625 27.70382812 153.6803125 28.40765625 153.515625 29.1328125 C149.15744314 46.97780041 136.86198689 62.62285025 122 73 C121.26910156 73.52980469 120.53820312 74.05960937 119.78515625 74.60546875 C106.73143607 83.28563482 91.24475294 86.17715757 75.875 86.25 C74.27785156 86.2809375 74.27785156 86.2809375 72.6484375 86.3125 C61.99414632 86.36421986 52.38293258 84.27660366 42.9375 79.3125 C41.92417603 78.79030884 41.92417603 78.79030884 40.89038086 78.25756836 C23.59726642 69.1188304 8.04048433 54.13524056 2 35 C2 34.01 2 33.02 2 32 C-1.63 32.66 -5.26 33.32 -9 34 C-6.81143974 22.40447018 -3.50856959 11.25261765 0 0 Z " fill="#050505" transform="translate(173,243)"/>
<path d="M0 0 C4.95 0 9.9 0 15 0 C15 2.64 15 5.28 15 8 C15.969375 8.04125 16.93875 8.0825 17.9375 8.125 C23.69764641 8.96794826 28.74826528 12.31477624 32.4609375 16.7421875 C34.87750725 20.59841582 35.14326147 23.56512327 35 28 C32.41414795 28.16236745 29.83848046 28.28095486 27.25 28.375 C26.52039063 28.42527344 25.79078125 28.47554687 25.0390625 28.52734375 C22.890625 28.5859375 22.890625 28.5859375 19 28 C16.609375 25.0390625 16.609375 25.0390625 15 22 C12.41246844 20.70623422 10.45041015 20.83167603 7.5625 20.8125 C6.59441406 20.79832031 5.62632812 20.78414062 4.62890625 20.76953125 C1.76733273 20.80850549 1.76733273 20.80850549 -1 23 C-1.58998944 25.05643492 -1.58998944 25.05643492 -1.5625 27.375 C-1.60503906 28.14585937 -1.64757812 28.91671875 -1.69140625 29.7109375 C-0.82994449 32.56300864 0.54961545 33.560223 3.06762695 35.06201172 C7.66488905 37.29355701 12.60911271 38.67519073 17.48046875 40.1796875 C24.87211955 42.60244406 30.49123081 45.98947697 35.5 52 C38.48881317 57.95105911 37.90069714 65.94686289 36.4921875 72.28515625 C33.98107337 78.85157539 29.02255566 82.27623053 22.96484375 85.203125 C21 86 21 86 17 87 C16.67 89.97 16.34 92.94 16 96 C11.05 96 6.1 96 1 96 C1 93.03 1 90.06 1 87 C-0.134375 86.79375 -1.26875 86.5875 -2.4375 86.375 C-8.65996621 84.76421974 -14.01496719 81.9267693 -17.6796875 76.5234375 C-19.84319349 72.37977349 -21 69.74067063 -21 65 C-15.39 65 -9.78 65 -4 65 C-3.01 66.98 -2.02 68.96 -1 71 C3.72735265 74.29815301 7.43624003 74.44156825 13 74 C15.86430119 73.25783601 15.86430119 73.25783601 18 72 C19.14363112 69.71273777 19.26501932 68.17147573 19.375 65.625 C19.42398438 64.85414063 19.47296875 64.08328125 19.5234375 63.2890625 C18.72679572 59.80524097 16.96614348 58.8889859 14 57 C10.55390314 55.63191747 10.55390314 55.63191747 6.8125 54.5625 C-3.49767271 51.29283875 -11.47079843 48.04504071 -18 39 C-19.51578428 35.96843143 -19.24971927 33.12033386 -19.3125 29.75 C-19.34988281 28.44546875 -19.38726562 27.1409375 -19.42578125 25.796875 C-18.69636044 19.29231515 -14.80981851 15.28546783 -9.94921875 11.2578125 C-6.77237064 9.20782233 -3.70267113 8.64959143 0 8 C0 5.36 0 2.72 0 0 Z " fill="#060606" transform="translate(242,203)"/>
</svg>
