<?xml version="1.0" standalone="no"?>
<!DOCTYPE svg PUBLIC "-//W3C//DTD SVG 20010904//EN"
 "http://www.w3.org/TR/2001/REC-SVG-20010904/DTD/svg10.dtd">
<svg version="1.0" xmlns="http://www.w3.org/2000/svg"
 width="200.000000pt" height="200.000000pt" viewBox="0 0 200.000000 200.000000"
 preserveAspectRatio="xMidYMid meet">

<g transform="translate(0.000000,200.000000) scale(0.100000,-0.100000)"
fill="#000000" stroke="none">
<path d="M927 1319 c-93 -22 -178 -92 -221 -182 -32 -69 -32 -78 -2 -107 l25
-23 6 29 c20 91 87 179 159 209 122 50 262 8 334 -100 38 -58 39 -61 10 -69
-22 -5 -20 -8 27 -56 27 -27 52 -47 56 -42 6 6 39 112 39 125 0 3 -9 3 -19 0
-15 -4 -24 5 -40 36 -47 91 -121 151 -218 176 -63 17 -99 17 -156 4z"/>
<path d="M970 1175 c0 -8 -4 -15 -9 -15 -5 0 -23 -12 -40 -26 -24 -20 -31 -34
-31 -63 0 -46 25 -72 94 -98 57 -21 76 -44 60 -71 -16 -25 -43 -27 -75 -3 -28
21 -89 29 -89 12 0 -16 51 -71 66 -71 8 0 19 -11 24 -25 12 -32 60 -36 60 -6
0 12 9 22 23 26 44 14 67 45 67 92 0 53 -24 79 -96 103 -51 18 -71 38 -61 64
8 21 63 21 75 0 6 -11 20 -14 45 -12 35 3 36 4 24 28 -7 14 -27 32 -44 40 -18
8 -33 21 -33 28 0 7 -13 12 -30 12 -20 0 -30 -5 -30 -15z"/>
<path d="M666 966 c-20 -69 -20 -76 4 -76 13 0 25 -12 34 -34 21 -51 93 -124
151 -154 44 -24 62 -27 145 -27 84 0 101 3 147 28 85 44 148 120 173 208 7 22
3 32 -20 54 l-28 26 -6 -44 c-13 -82 -82 -165 -169 -202 -50 -21 -152 -19
-202 4 -57 26 -103 67 -127 114 -18 37 -19 42 -4 52 14 11 11 18 -25 59 -22
25 -44 46 -49 46 -5 0 -16 -24 -24 -54z"/>
</g>
</svg>
