<?xml version="1.0" encoding="UTF-8"?>
<!DOCTYPE svg PUBLIC "-//W3C//DTD SVG 1.1//EN" "http://www.w3.org/Graphics/SVG/1.1/DTD/svg11.dtd">
<svg xmlns="http://www.w3.org/2000/svg" version="1.1" width="60px" height="60px" style="shape-rendering:geometricPrecision; text-rendering:geometricPrecision; image-rendering:optimizeQuality; fill-rule:evenodd; clip-rule:evenodd" xmlns:xlink="http://www.w3.org/1999/xlink">
<g><path style="opacity:0.769" fill="#010101" d="M 23.5,8.5 C 36.0034,6.58392 45.0034,11.2506 50.5,22.5C 51.086,22.2907 51.586,21.9574 52,21.5C 52.5559,43.6216 42.0559,52.7883 20.5,49C 14.9713,46.3045 10.9713,42.1379 8.5,36.5C 7.91395,36.7093 7.41395,37.0426 7,37.5C 6.64765,33.7417 7.48098,30.2417 9.5,27C 9.03286,20.9216 11.3662,15.9216 16.5,12C 18.9252,10.7874 21.2585,9.62073 23.5,8.5 Z M 27.5,12.5 C 35.193,12.5091 40.8596,15.8425 44.5,22.5C 44.0233,23.4776 43.3567,24.3109 42.5,25C 44.448,26.439 45.7814,28.2723 46.5,30.5C 42.2124,44.9783 33.2124,49.145 19.5,43C 17.2589,41.2609 15.5922,39.0942 14.5,36.5C 14.9767,35.5224 15.6433,34.6891 16.5,34C 14.7727,32.6106 13.4394,30.9439 12.5,29C 13.923,20.0834 18.923,14.5834 27.5,12.5 Z"/></g>
<g><path style="opacity:0.785" fill="#010101" d="M 27.5,16.5 C 30.4492,16.9314 33.1159,18.0981 35.5,20C 38.258,22.5307 37.9246,24.0307 34.5,24.5C 32.5191,24.5629 30.8524,23.8962 29.5,22.5C 28.5,22.8333 27.8333,23.5 27.5,24.5C 30.7882,26.2191 33.9549,28.2191 37,30.5C 37.6667,32.8333 37.6667,35.1667 37,37.5C 34.634,39.2116 32.3006,40.8783 30,42.5C 27.6754,41.1809 25.3421,39.8475 23,38.5C 21.9914,36.9751 21.4914,35.3084 21.5,33.5C 23.1992,33.3398 24.8659,33.5065 26.5,34C 28.4433,36.9491 30.4433,37.1158 32.5,34.5C 30.2681,32.3549 27.6014,30.8549 24.5,30C 21.3461,27.2251 20.8461,24.0584 23,20.5C 25.1184,19.7171 26.6184,18.3838 27.5,16.5 Z"/></g>
</svg>
