<?xml version="1.0" encoding="UTF-8"?>
<!DOCTYPE svg PUBLIC "-//W3C//DTD SVG 1.1//EN" "http://www.w3.org/Graphics/SVG/1.1/DTD/svg11.dtd">
<svg xmlns="http://www.w3.org/2000/svg" version="1.1" width="80px" height="80px" style="shape-rendering:geometricPrecision; text-rendering:geometricPrecision; image-rendering:optimizeQuality; fill-rule:evenodd; clip-rule:evenodd" xmlns:xlink="http://www.w3.org/1999/xlink">
<g><path style="opacity:0.838" fill="#010101" d="M 30.5,4.5 C 44.2668,2.22877 56.1001,5.89544 66,15.5C 69.1109,19.3869 71.4443,23.7202 73,28.5C 74.3561,27.6198 75.8561,27.2865 77.5,27.5C 76.4792,32.7322 75.1459,37.8988 73.5,43C 72.8378,56.6168 66.1712,66.2835 53.5,72C 36.8788,78.1212 22.7121,74.6212 11,61.5C 8.676,58.5201 7.176,55.1867 6.5,51.5C 4.83333,51.5 3.16667,51.5 1.5,51.5C 2.21475,46.0204 3.54809,40.6871 5.5,35.5C 5.71153,26.2341 9.3782,18.4008 16.5,12C 20.815,8.67822 25.4816,6.17822 30.5,4.5 Z M 68.5,39.5 C 64.285,60.4415 51.6184,69.2749 30.5,66C 22.2519,62.7529 16.2519,57.0862 12.5,49C 14.3839,48.7837 16.0506,48.117 17.5,47C 15.1667,44.6667 12.8333,42.3333 10.5,40C 13.6173,19.8755 25.284,10.5421 45.5,12C 55.1356,14.4706 61.8023,20.3039 65.5,29.5C 64.1667,30.1667 62.8333,30.8333 61.5,31.5C 63.8558,34.1864 66.1891,36.853 68.5,39.5 Z"/></g>
<g><path style="opacity:0.855" fill="#010101" d="M 35.5,18.5 C 37.8333,18.5 40.1667,18.5 42.5,18.5C 42.281,19.675 42.6143,20.675 43.5,21.5C 48.7748,22.7724 51.4414,26.1057 51.5,31.5C 48.7531,31.8134 46.0865,31.48 43.5,30.5C 40.4462,26.4053 37.7796,26.5719 35.5,31C 35.7591,32.2613 36.4258,33.2613 37.5,34C 41.2432,35.1365 44.9099,36.4698 48.5,38C 52.2594,41.7434 53.4261,46.2434 52,51.5C 50.4013,54.5585 47.9013,56.5585 44.5,57.5C 43.5713,58.6888 43.238,60.0222 43.5,61.5C 41.1667,61.5 38.8333,61.5 36.5,61.5C 36.762,60.0222 36.4287,58.6888 35.5,57.5C 29.1605,56.4991 26.1605,52.8324 26.5,46.5C 29.2469,46.1866 31.9135,46.52 34.5,47.5C 37.798,52.4622 41.1314,52.6289 44.5,48C 43.8993,46.395 42.8993,45.0616 41.5,44C 37.2707,42.8854 33.2707,41.2187 29.5,39C 24.6935,31.0861 26.5268,25.2527 35,21.5C 35.4828,20.552 35.6495,19.552 35.5,18.5 Z"/></g>
</svg>
