<?xml version="1.0" encoding="UTF-8"?>
<!DOCTYPE svg PUBLIC "-//W3C//DTD SVG 1.1//EN" "http://www.w3.org/Graphics/SVG/1.1/DTD/svg11.dtd">
<svg xmlns="http://www.w3.org/2000/svg" version="1.1" width="80px" height="80px" style="shape-rendering:geometricPrecision; text-rendering:geometricPrecision; image-rendering:optimizeQuality; fill-rule:evenodd; clip-rule:evenodd" xmlns:xlink="http://www.w3.org/1999/xlink">
<g><path style="opacity:1" fill="#fefefe" d="M -0.5,-0.5 C 26.1667,-0.5 52.8333,-0.5 79.5,-0.5C 79.5,26.1667 79.5,52.8333 79.5,79.5C 52.8333,79.5 26.1667,79.5 -0.5,79.5C -0.5,52.8333 -0.5,26.1667 -0.5,-0.5 Z"/></g>
<g><path style="opacity:1" fill="#131313" d="M 58.5,40.5 C 57.0401,38.5372 55.3734,36.7038 53.5,35C 54.428,34.6121 55.0946,33.9454 55.5,33C 49.446,22.3175 40.7793,19.6508 29.5,25C 25.0436,28.4127 22.5436,32.9127 22,38.5C 21.2917,37.6195 20.4584,36.9528 19.5,36.5C 20.322,28.1202 24.9887,22.2869 33.5,19C 39.9219,17.6989 45.9219,18.6989 51.5,22C 57.1367,26.4615 60.1367,31.9615 60.5,38.5C 60.2528,39.7133 59.5862,40.38 58.5,40.5 Z"/></g>
<g><path style="opacity:1" fill="#f3f3f3" d="M 58.5,40.5 C 56.3201,45.6241 52.9868,50.1241 48.5,54C 37.6013,59.0394 29.268,56.3728 23.5,46C 23.9054,45.0546 24.572,44.3879 25.5,44C 23.5588,41.5464 21.2254,39.713 18.5,38.5C 18.8333,37.8333 19.1667,37.1667 19.5,36.5C 20.4584,36.9528 21.2917,37.6195 22,38.5C 22.5436,32.9127 25.0436,28.4127 29.5,25C 40.7793,19.6508 49.446,22.3175 55.5,33C 55.0946,33.9454 54.428,34.6121 53.5,35C 55.3734,36.7038 57.0401,38.5372 58.5,40.5 Z"/></g>
<g><path style="opacity:1" fill="#131313" d="M 37.5,26.5 C 38.8333,26.5 40.1667,26.5 41.5,26.5C 41.5,27.5 41.5,28.5 41.5,29.5C 44.8333,29.5 46.5,31.1667 46.5,34.5C 43.3161,33.3573 39.9827,32.6906 36.5,32.5C 36.33,33.8221 36.6634,34.9887 37.5,36C 41.2074,36.9358 44.3741,38.7692 47,41.5C 47.8471,45.4715 46.3471,48.1382 42.5,49.5C 41.6143,50.325 41.281,51.325 41.5,52.5C 40.1667,52.5 38.8333,52.5 37.5,52.5C 37.1699,49.8906 35.6699,48.2239 33,47.5C 32.5172,46.552 32.3505,45.552 32.5,44.5C 35.0895,44.3962 37.4229,45.0629 39.5,46.5C 42.3962,45.9763 43.0628,44.4763 41.5,42C 34.8498,41.3672 32.0165,37.8672 33,31.5C 34.1096,29.9632 35.6096,29.2965 37.5,29.5C 37.5,28.5 37.5,27.5 37.5,26.5 Z"/></g>
<g><path style="opacity:1" fill="#171717" d="M 18.5,38.5 C 21.2254,39.713 23.5588,41.5464 25.5,44C 24.572,44.3879 23.9054,45.0546 23.5,46C 29.268,56.3728 37.6013,59.0394 48.5,54C 52.9868,50.1241 56.3201,45.6241 58.5,40.5C 59.2206,50.9917 54.2206,57.4917 43.5,60C 32.3844,61.4419 24.3844,57.1086 19.5,47C 18.552,46.5172 17.552,46.3505 16.5,46.5C 16.9628,43.779 17.6295,41.1123 18.5,38.5 Z"/></g>
</svg>
