<?xml version="1.0" encoding="UTF-8"?>
<!DOCTYPE svg PUBLIC "-//W3C//DTD SVG 1.1//EN" "http://www.w3.org/Graphics/SVG/1.1/DTD/svg11.dtd">
<svg xmlns="http://www.w3.org/2000/svg" version="1.1" width="60px" height="60px" style="shape-rendering:geometricPrecision; text-rendering:geometricPrecision; image-rendering:optimizeQuality; fill-rule:evenodd; clip-rule:evenodd" xmlns:xlink="http://www.w3.org/1999/xlink">
<g><path style="opacity:0.969" fill="#323232" d="M 28.5,7.5 C 28.56,6.95691 28.8933,6.62358 29.5,6.5C 34.429,14.0279 39.0956,21.6946 43.5,29.5C 38.8666,27.8436 34.1999,26.177 29.5,24.5C 29.5,29.1667 29.5,33.8333 29.5,38.5C 28.8333,38.5 28.5,38.8333 28.5,39.5C 27.8333,39.5 27.5,39.1667 27.5,38.5C 27.5,37.8333 27.1667,37.5 26.5,37.5C 26.1583,36.6618 25.4916,36.3284 24.5,36.5C 23.3406,34.7497 21.674,33.7497 19.5,33.5C 18.1667,32.1667 16.8333,30.8333 15.5,29.5C 20.2883,28.19 24.7883,26.19 29,23.5C 29.8174,17.9836 29.6507,12.6503 28.5,7.5 Z"/></g>
<g><path style="opacity:0.968" fill="#828282" d="M 28.5,7.5 C 29.6507,12.6503 29.8174,17.9836 29,23.5C 24.7883,26.19 20.2883,28.19 15.5,29.5C 19.8333,22.1667 24.1667,14.8333 28.5,7.5 Z"/></g>
<g><path style="opacity:0.992" fill="#131313" d="M 43.5,29.5 C 42.1667,30.8333 40.8333,32.1667 39.5,33.5C 37.326,33.7497 35.6594,34.7497 34.5,36.5C 33.5084,36.3284 32.8417,36.6618 32.5,37.5C 31.8333,37.5 31.5,37.8333 31.5,38.5C 30.8333,38.5 30.1667,38.5 29.5,38.5C 29.5,33.8333 29.5,29.1667 29.5,24.5C 34.1999,26.177 38.8666,27.8436 43.5,29.5 Z"/></g>
<g><path style="opacity:0.949" fill="#7c7c7c" d="M 19.5,33.5 C 20.6594,35.2503 22.326,36.2503 24.5,36.5C 24.8417,37.3382 25.5084,37.6716 26.5,37.5C 27.1667,37.5 27.5,37.8333 27.5,38.5C 27.5,39.1667 27.8333,39.5 28.5,39.5C 29.7908,43.6011 29.7908,47.6011 28.5,51.5C 23.9973,45.4898 19.664,39.3232 15.5,33C 16.8193,32.805 18.1526,32.9717 19.5,33.5 Z"/></g>
<g><path style="opacity:0.948" fill="#343433" d="M 28.5,51.5 C 29.7908,47.6011 29.7908,43.6011 28.5,39.5C 29.791,39.7373 30.791,39.404 31.5,38.5C 32.1667,38.5 32.5,38.1667 32.5,37.5C 33.4916,37.6716 34.1583,37.3382 34.5,36.5C 36.674,36.2503 38.3406,35.2503 39.5,33.5C 40.5832,33.4606 41.5832,33.1272 42.5,32.5C 43.521,33.0016 43.6877,33.6683 43,34.5C 38.8333,40.1667 34.6667,45.8333 30.5,51.5C 29.7435,52.7733 29.0768,52.7733 28.5,51.5 Z"/></g>
</svg>
