<?xml version="1.0" encoding="UTF-8"?>
<!DOCTYPE svg PUBLIC "-//W3C//DTD SVG 1.1//EN" "http://www.w3.org/Graphics/SVG/1.1/DTD/svg11.dtd">
<svg xmlns="http://www.w3.org/2000/svg" version="1.1" width="60px" height="60px" style="shape-rendering:geometricPrecision; text-rendering:geometricPrecision; image-rendering:optimizeQuality; fill-rule:evenodd; clip-rule:evenodd" xmlns:xlink="http://www.w3.org/1999/xlink">
<g><path style="opacity:0.93" fill="#1be583" d="M -0.5,18.5 C 1.16667,18.5 2.83333,18.5 4.5,18.5C 4.5,20.1667 4.5,21.8333 4.5,23.5C 8.00706,22.9935 11.1737,23.6602 14,25.5C 14.4988,29.4862 14.6655,33.4862 14.5,37.5C 12.5,37.5 10.5,37.5 8.5,37.5C 8.5,34.8333 8.5,32.1667 8.5,29.5C 7.16667,29.5 5.83333,29.5 4.5,29.5C 4.5,32.1667 4.5,34.8333 4.5,37.5C 2.83333,37.5 1.16667,37.5 -0.5,37.5C -0.5,31.1667 -0.5,24.8333 -0.5,18.5 Z"/></g>
<g><path style="opacity:0.919" fill="#17c770" d="M 34.5,18.5 C 36.8333,18.5 39.1667,18.5 41.5,18.5C 41.5,24.8333 41.5,31.1667 41.5,37.5C 39.1667,37.5 36.8333,37.5 34.5,37.5C 34.5,31.1667 34.5,24.8333 34.5,18.5 Z"/></g>
<g><path style="opacity:0.907" fill="#1be483" d="M 43.5,23.5 C 45.5,23.5 47.5,23.5 49.5,23.5C 49.5,26.5 49.5,29.5 49.5,32.5C 50.8221,32.67 51.9887,32.3366 53,31.5C 53.4974,28.854 53.6641,26.1873 53.5,23.5C 55.1667,23.5 56.8333,23.5 58.5,23.5C 58.6657,27.8461 58.499,32.1794 58,36.5C 53.3333,37.8333 48.6667,37.8333 44,36.5C 43.501,32.1794 43.3343,27.8461 43.5,23.5 Z"/></g>
<g><path style="opacity:0.901" fill="#1ada7c" d="M 16.5,23.5 C 18.7925,23.2436 20.9592,23.5769 23,24.5C 23.4974,27.146 23.6641,29.8127 23.5,32.5C 24.5,32.5 25.5,32.5 26.5,32.5C 26.5,29.5 26.5,26.5 26.5,23.5C 28.5,23.5 30.5,23.5 32.5,23.5C 32.7719,27.9017 32.4386,32.2351 31.5,36.5C 26.9497,37.8001 22.4497,37.8001 18,36.5C 16.6326,32.3004 16.1326,27.9671 16.5,23.5 Z"/></g>
</svg>
