<?xml version="1.0" encoding="UTF-8"?>
<!DOCTYPE svg PUBLIC "-//W3C//DTD SVG 1.1//EN" "http://www.w3.org/Graphics/SVG/1.1/DTD/svg11.dtd">
<svg xmlns="http://www.w3.org/2000/svg" version="1.1" width="60px" height="60px" style="shape-rendering:geometricPrecision; text-rendering:geometricPrecision; image-rendering:optimizeQuality; fill-rule:evenodd; clip-rule:evenodd" xmlns:xlink="http://www.w3.org/1999/xlink">
<g><path style="opacity:0.885" fill="#d60610" d="M 1.5,23.5 C 2.5,23.5 3.5,23.5 4.5,23.5C 5.74183,30.0075 6.4085,30.0075 6.5,23.5C 7.5,23.5 8.5,23.5 9.5,23.5C 9.5,28.5 9.5,33.5 9.5,38.5C 8.16667,38.5 6.83333,38.5 5.5,38.5C 4.95526,34.8284 4.62192,35.1617 4.5,39.5C 3.17793,39.67 2.01127,39.3366 1,38.5C 0.22225,33.4158 0.388917,28.4158 1.5,23.5 Z"/></g>
<g><path style="opacity:0.986" fill="#ce060f" d="M 10.5,23.5 C 13.1667,23.5 15.8333,23.5 18.5,23.5C 18.5,24.5 18.5,25.5 18.5,26.5C 17.1667,26.5 15.8333,26.5 14.5,26.5C 14.5,27.5 14.5,28.5 14.5,29.5C 15.5,29.5 16.5,29.5 17.5,29.5C 17.5,30.5 17.5,31.5 17.5,32.5C 16.325,32.281 15.325,32.6143 14.5,33.5C 15.6888,34.4287 17.0222,34.762 18.5,34.5C 18.67,35.8221 18.3366,36.9887 17.5,38C 15.1902,38.4966 12.8568,38.6633 10.5,38.5C 10.5,33.5 10.5,28.5 10.5,23.5 Z"/></g>
<g><path style="opacity:0.851" fill="#e40812" d="M 27.5,23.5 C 27.5,24.5 27.5,25.5 27.5,26.5C 26.5,26.5 25.5,26.5 24.5,26.5C 24.5,30.1667 24.5,33.8333 24.5,37.5C 23.5,37.5 22.5,37.5 21.5,37.5C 21.7685,32.6529 21.1018,27.9862 19.5,23.5C 22.1667,23.5 24.8333,23.5 27.5,23.5 Z"/></g>
<g><path style="opacity:0.988" fill="#ca0610" d="M 27.5,23.5 C 30.1667,23.5 32.8333,23.5 35.5,23.5C 35.5,24.5 35.5,25.5 35.5,26.5C 34.0222,26.238 32.6888,26.5713 31.5,27.5C 32.325,28.3857 33.325,28.719 34.5,28.5C 34.5,29.8333 34.5,31.1667 34.5,32.5C 33.5,32.5 32.5,32.5 31.5,32.5C 31.5,34.1667 31.5,35.8333 31.5,37.5C 30.1667,37.5 28.8333,37.5 27.5,37.5C 27.5,33.8333 27.5,30.1667 27.5,26.5C 27.5,25.5 27.5,24.5 27.5,23.5 Z"/></g>
<g><path style="opacity:0.96" fill="#c90610" d="M 35.5,23.5 C 36.8333,23.5 38.1667,23.5 39.5,23.5C 39.5,27.1667 39.5,30.8333 39.5,34.5C 40.8333,34.5 42.1667,34.5 43.5,34.5C 43.6882,36.1033 43.1882,37.4366 42,38.5C 39.9592,37.5769 37.7925,37.2436 35.5,37.5C 35.5,33.8333 35.5,30.1667 35.5,26.5C 35.5,25.5 35.5,24.5 35.5,23.5 Z"/></g>
<g><path style="opacity:0.778" fill="#df0712" d="M 44.5,23.5 C 45.5,23.5 46.5,23.5 47.5,23.5C 47.5,28.5 47.5,33.5 47.5,38.5C 46.5,38.5 45.5,38.5 44.5,38.5C 44.5,33.5 44.5,28.5 44.5,23.5 Z"/></g>
<g><path style="opacity:0.916" fill="#ce0610" d="M 48.5,23.5 C 50.4918,23.3285 52.1585,23.9951 53.5,25.5C 54.8544,23.8164 56.5211,23.3164 58.5,24C 57.3677,26.4336 56.3677,28.9336 55.5,31.5C 56.3677,34.0664 57.3677,36.5664 58.5,39C 56.0243,39.6802 54.191,38.8469 53,36.5C 51.8469,38.497 50.3469,38.8304 48.5,37.5C 49.2135,35.1889 50.2135,33.0223 51.5,31C 50.3578,28.5501 49.3578,26.0501 48.5,23.5 Z"/></g>
</svg>
