<?xml version="1.0" encoding="UTF-8"?>
<!DOCTYPE svg PUBLIC "-//W3C//DTD SVG 1.1//EN" "http://www.w3.org/Graphics/SVG/1.1/DTD/svg11.dtd">
<svg xmlns="http://www.w3.org/2000/svg" version="1.1" width="60px" height="60px" style="shape-rendering:geometricPrecision; text-rendering:geometricPrecision; image-rendering:optimizeQuality; fill-rule:evenodd; clip-rule:evenodd" xmlns:xlink="http://www.w3.org/1999/xlink">
<g><path style="opacity:0.895" fill="#0b0b0b" d="M 31.5,41.5 C 30.1667,42.8333 30.1667,44.1667 31.5,45.5C 31.0831,46.1239 30.4164,46.4573 29.5,46.5C 26.2301,45.0717 23.0635,43.4051 20,41.5C 16.1636,43.6373 12.997,42.6373 10.5,38.5C 11.55,36.8983 10.8833,36.065 8.5,36C 4.43316,32.2411 2.76649,27.5745 3.5,22C 3.66667,19.5 3.83333,17 4,14.5C 4.91471,15.3279 5.58138,16.3279 6,17.5C 7.20931,10.8643 8.70931,10.8643 10.5,17.5C 18.3721,21.7216 22.3721,28.3883 22.5,37.5C 24.8791,40.8697 27.8791,42.203 31.5,41.5 Z"/></g>
<g><path style="opacity:0.836" fill="#080808" d="M 54.5,25.5 C 52.1431,26.5944 50.3098,28.2611 49,30.5C 46.8669,29.7449 45.2002,28.4116 44,26.5C 42.2415,29.6076 41.4081,32.941 41.5,36.5C 43.4835,36.3832 45.1502,37.0499 46.5,38.5C 46,38.8333 45.5,39.1667 45,39.5C 42.2377,36.6477 40.0711,36.9811 38.5,40.5C 37.596,41.209 37.2627,42.209 37.5,43.5C 35.2972,43.6036 33.2972,44.2702 31.5,45.5C 30.1667,44.1667 30.1667,42.8333 31.5,41.5C 34.1666,39.8266 36.1666,37.4933 37.5,34.5C 37.0688,33.7065 36.7355,32.8732 36.5,32C 38.0765,25.3328 41.9098,20.4995 48,17.5C 49.8221,11.0416 51.1555,11.0416 52,17.5C 52.8333,16.5 53.6667,15.5 54.5,14.5C 54.8333,15.3333 55.1667,16.1667 55.5,17C 54.5369,19.9902 54.2036,22.8236 54.5,25.5 Z"/></g>
<g><path style="opacity:0.779" fill="#0d0d0d" d="M 54.5,25.5 C 55.2724,27.5295 54.6057,29.3629 52.5,31C 52.8333,31.3333 53.1667,31.6667 53.5,32C 52.1659,34.0871 50.3326,35.5871 48,36.5C 48.1484,37.825 47.9817,38.9916 47.5,40C 45.2199,40.7028 43.2199,41.8694 41.5,43.5C 40.1451,42.8118 39.1451,41.8118 38.5,40.5C 40.0711,36.9811 42.2377,36.6477 45,39.5C 45.5,39.1667 46,38.8333 46.5,38.5C 45.1502,37.0499 43.4835,36.3832 41.5,36.5C 41.4081,32.941 42.2415,29.6076 44,26.5C 45.2002,28.4116 46.8669,29.7449 49,30.5C 50.3098,28.2611 52.1431,26.5944 54.5,25.5 Z"/></g>
</svg>
