<svg version="1.1" id="Layer_1" xmlns="http://www.w3.org/2000/svg" xmlns:xlink="http://www.w3.org/1999/xlink" x="0px" y="0px"
	 width="100%" viewBox="0 0 512 512" enable-background="new 0 0 512 512" xml:space="preserve">
<path fill="#000000" opacity="1.000000" stroke="none" 
	d="
M301.000000,513.000000 
	C271.979095,513.000000 242.958206,513.000000 213.356537,512.634888 
	C209.581131,510.851929 206.169846,509.782288 203.231232,507.953217 
	C193.088455,501.639984 187.140717,492.401459 187.088974,480.412842 
	C186.876221,431.126678 187.000000,381.838989 187.000000,332.551880 
	C187.000000,330.783478 187.000000,329.015045 187.000000,327.000000 
	C184.659851,327.000000 182.854797,327.000000 181.049728,327.000000 
	C131.929123,327.000000 82.807800,327.143219 33.688423,326.898224 
	C21.570610,326.837799 12.207572,320.915222 5.858043,310.453003 
	C4.320260,307.919159 2.623595,305.481750 0.999997,303.000000 
	C1.000000,272.645782 1.000000,242.291550 1.353906,211.379501 
	C2.110887,210.311188 2.681306,209.861557 2.892460,209.281235 
	C7.667341,196.158066 20.963808,186.950226 34.421768,186.970657 
	C83.379967,187.044983 132.338348,187.000000 181.296661,187.000000 
	C183.079605,187.000000 184.862534,187.000000 187.000000,187.000000 
	C187.000000,184.783371 187.000000,182.991806 187.000000,181.200241 
	C187.000000,131.742355 186.863190,82.283768 187.116913,32.827183 
	C187.166885,23.087927 191.475784,14.695122 199.604370,8.908948 
	C203.813446,5.912800 208.518829,3.613901 213.000000,0.999998 
	C242.020889,1.000000 271.041779,1.000000 300.643463,1.365128 
	C304.422180,3.148337 307.833405,4.222077 310.779388,6.046929 
	C320.962585,12.354833 326.854279,21.647997 326.907806,33.628899 
	C327.128082,82.960373 327.000000,132.293411 327.000000,181.625870 
	C327.000000,183.378464 327.000000,185.131058 327.000000,187.000000 
	C329.490326,187.000000 331.314240,187.000000 333.138123,187.000000 
	C382.470581,187.000000 431.803802,186.861099 481.134918,187.118515 
	C490.872589,187.169312 499.300110,191.430832 505.084198,199.592163 
	C508.074860,203.811935 510.383331,208.515182 513.000000,213.000000 
	C513.000000,242.020889 513.000000,271.041779 512.634888,300.643463 
	C510.851593,304.422180 509.777893,307.833466 507.953033,310.779419 
	C501.645142,320.962677 492.351929,326.854340 480.371033,326.907837 
	C431.039551,327.128082 381.706543,327.000000 332.374084,327.000000 
	C330.621490,327.000000 328.868896,327.000000 327.000000,327.000000 
	C327.000000,329.490387 327.000000,331.314301 327.000000,333.138214 
	C327.000000,382.470673 327.138885,431.803833 326.881500,481.134949 
	C326.830688,490.872650 322.569092,499.300110 314.407837,505.084259 
	C310.188080,508.074951 305.484833,510.383362 301.000000,513.000000 
z"/>
<path fill="#FFFFFF" opacity="1.000000" stroke="none" 
	d="
M513.000000,212.531342 
	C510.383331,208.515182 508.074860,203.811935 505.084198,199.592163 
	C499.300110,191.430832 490.872589,187.169312 481.134918,187.118515 
	C431.803802,186.861099 382.470581,187.000000 333.138123,187.000000 
	C331.314240,187.000000 329.490326,187.000000 327.000000,187.000000 
	C327.000000,185.131058 327.000000,183.378464 327.000000,181.625870 
	C327.000000,132.293411 327.128082,82.960373 326.907806,33.628899 
	C326.854279,21.647997 320.962585,12.354833 310.779388,6.046929 
	C307.833405,4.222077 304.422180,3.148337 301.112122,1.365128 
	C371.593689,1.000000 442.187378,1.000000 513.000000,1.000000 
	C513.000000,71.354073 513.000000,141.708374 513.000000,212.531342 
z"/>
<path fill="#FFFFFF" opacity="1.000000" stroke="none" 
	d="
M301.468689,513.000000 
	C305.484833,510.383362 310.188080,508.074951 314.407837,505.084259 
	C322.569092,499.300110 326.830688,490.872650 326.881500,481.134949 
	C327.138885,431.803833 327.000000,382.470673 327.000000,333.138214 
	C327.000000,331.314301 327.000000,329.490387 327.000000,327.000000 
	C328.868896,327.000000 330.621490,327.000000 332.374084,327.000000 
	C381.706543,327.000000 431.039551,327.128082 480.371033,326.907837 
	C492.351929,326.854340 501.645142,320.962677 507.953033,310.779419 
	C509.777893,307.833466 510.851593,304.422180 512.634888,301.112122 
	C513.000000,371.593689 513.000000,442.187378 513.000000,513.000000 
	C442.645935,513.000000 372.291626,513.000000 301.468689,513.000000 
z"/>
<path fill="#FFFFFF" opacity="1.000000" stroke="none" 
	d="
M212.531342,0.999998 
	C208.518829,3.613901 203.813446,5.912800 199.604370,8.908948 
	C191.475784,14.695122 187.166885,23.087927 187.116913,32.827183 
	C186.863190,82.283768 187.000000,131.742355 187.000000,181.200241 
	C187.000000,182.991806 187.000000,184.783371 187.000000,187.000000 
	C184.862534,187.000000 183.079605,187.000000 181.296661,187.000000 
	C132.338348,187.000000 83.379967,187.044983 34.421768,186.970657 
	C20.963808,186.950226 7.667341,196.158066 2.892460,209.281235 
	C2.681306,209.861557 2.110887,210.311188 1.353906,210.910843 
	C1.000000,141.072617 1.000000,71.145233 1.000000,1.000000 
	C71.354080,1.000000 141.708374,1.000000 212.531342,0.999998 
z"/>
<path fill="#FFFFFF" opacity="1.000000" stroke="none" 
	d="
M0.999997,303.468658 
	C2.623595,305.481750 4.320260,307.919159 5.858043,310.453003 
	C12.207572,320.915222 21.570610,326.837799 33.688423,326.898224 
	C82.807800,327.143219 131.929123,327.000000 181.049728,327.000000 
	C182.854797,327.000000 184.659851,327.000000 187.000000,327.000000 
	C187.000000,329.015045 187.000000,330.783478 187.000000,332.551880 
	C187.000000,381.838989 186.876221,431.126678 187.088974,480.412842 
	C187.140717,492.401459 193.088455,501.639984 203.231232,507.953217 
	C206.169846,509.782288 209.581131,510.851929 212.887878,512.634888 
	C142.406647,513.000000 71.813309,513.000000 1.000000,513.000000 
	C1.000000,443.312592 1.000000,373.624969 0.999997,303.468658 
z"/>
</svg>