<?xml version="1.0" encoding="UTF-8"?>
<!DOCTYPE svg PUBLIC "-//W3C//DTD SVG 1.1//EN" "http://www.w3.org/Graphics/SVG/1.1/DTD/svg11.dtd">
<svg xmlns="http://www.w3.org/2000/svg" version="1.1" width="60px" height="60px" style="shape-rendering:geometricPrecision; text-rendering:geometricPrecision; image-rendering:optimizeQuality; fill-rule:evenodd; clip-rule:evenodd" xmlns:xlink="http://www.w3.org/1999/xlink">
<g><path style="opacity:0.771" fill="#000000" d="M 25.5,9.5 C 39.7249,9.10506 47.7249,15.9384 49.5,30C 45.2964,48.1018 34.6298,53.4352 17.5,46C 7.28669,35.6321 6.95335,24.9654 16.5,14C 19.324,11.9212 22.324,10.4212 25.5,9.5 Z M 25.5,14.5 C 37.8102,14.3112 43.9768,20.3112 44,32.5C 40.4388,43.2481 33.2721,46.7481 22.5,43C 14.331,37.4852 12.4977,30.3185 17,21.5C 19.4162,18.5766 22.2496,16.2433 25.5,14.5 Z"/></g>
<g><path style="opacity:0.854" fill="#000000" d="M 27.5,19.5 C 28.8333,19.5 30.1667,19.5 31.5,19.5C 31.5,22.1667 31.5,24.8333 31.5,27.5C 34.1667,27.5 36.8333,27.5 39.5,27.5C 39.5,29.1667 39.5,30.8333 39.5,32.5C 36.8333,32.5 34.1667,32.5 31.5,32.5C 31.5,34.8333 31.5,37.1667 31.5,39.5C 30.1667,39.5 28.8333,39.5 27.5,39.5C 27.5,37.1667 27.5,34.8333 27.5,32.5C 24.8333,32.5 22.1667,32.5 19.5,32.5C 19.5,30.8333 19.5,29.1667 19.5,27.5C 22.1667,27.5 24.8333,27.5 27.5,27.5C 27.5,24.8333 27.5,22.1667 27.5,19.5 Z"/></g>
</svg>
