<?xml version="1.0" encoding="UTF-8"?>
<!DOCTYPE svg PUBLIC "-//W3C//DTD SVG 1.1//EN" "http://www.w3.org/Graphics/SVG/1.1/DTD/svg11.dtd">
<svg xmlns="http://www.w3.org/2000/svg" version="1.1" width="60px" height="60px" style="shape-rendering:geometricPrecision; text-rendering:geometricPrecision; image-rendering:optimizeQuality; fill-rule:evenodd; clip-rule:evenodd" xmlns:xlink="http://www.w3.org/1999/xlink">
<g><path style="opacity:0.672" fill="#000000" d="M 33.5,11.5 C 45.0748,10.9079 51.0748,16.4079 51.5,28C 52.0048,37.1647 48.0048,43.4981 39.5,47C 32.4262,46.8707 25.2595,47.0374 18,47.5C 14.1667,47.3333 10.3333,47.1667 6.5,47C 13.8333,46.6667 21.1667,46.3333 28.5,46C 27.8333,45.3333 27.1667,44.6667 26.5,44C 19.8085,43.8309 13.1419,43.3309 6.5,42.5C 12.1667,41.8333 17.8333,41.1667 23.5,40.5C 23.2907,39.914 22.9574,39.414 22.5,39C 17.1358,38.8295 11.8025,38.3295 6.5,37.5C 11.456,36.5059 16.456,36.1725 21.5,36.5C 21.5,35.5 21.5,34.5 21.5,33.5C 9.5,33.1667 9.5,32.8333 21.5,32.5C 21.5,31.1667 21.5,29.8333 21.5,28.5C 1.5,28.1667 1.5,27.8333 21.5,27.5C 21.5792,26.0695 21.2458,24.7362 20.5,23.5C 22.162,22.6733 23.4954,21.5067 24.5,20C 18.4725,19.8303 12.4725,19.3303 6.5,18.5C 13.1419,17.6691 19.8085,17.1691 26.5,17C 29.028,15.6841 29.028,14.5174 26.5,13.5C 28.9688,12.8319 31.3021,12.1653 33.5,11.5 Z M 32.5,24.5 C 31.7703,22.955 30.437,22.1216 28.5,22C 30.4494,20.1653 32.7827,18.9986 35.5,18.5C 35.2907,17.914 34.9574,17.414 34.5,17C 37.5119,15.523 40.5119,15.8563 43.5,18C 49.3871,27.1345 48.0537,35.1345 39.5,42C 32.0023,44.2416 27.669,41.4082 26.5,33.5C 31.5,32.9969 31.1667,32.6636 25.5,32.5C 25.5,31.1667 25.5,29.8333 25.5,28.5C 32.6258,28.6369 32.9592,27.9702 26.5,26.5C 28.0225,24.7175 30.0225,24.0508 32.5,24.5 Z"/></g>
<g><path style="opacity:0.275" fill="#000000" d="M 12.5,12.5 C 16.226,12.1774 19.8927,12.5108 23.5,13.5C 21.6667,13.8333 19.8333,14.1667 18,14.5C 15.7047,14.4535 13.8714,13.7868 12.5,12.5 Z"/></g>
<g><path style="opacity:0.566" fill="#000000" d="M 32.5,24.5 C 43.2264,26.5361 43.8931,29.8695 34.5,34.5C 34.1667,34.1667 33.8333,33.8333 33.5,33.5C 34.5,32.1667 35.5,30.8333 36.5,29.5C 34.3886,28.3954 33.0553,26.7288 32.5,24.5 Z"/></g>
</svg>
