<?xml version="1.0" encoding="UTF-8"?>
<!DOCTYPE svg PUBLIC "-//W3C//DTD SVG 1.1//EN" "http://www.w3.org/Graphics/SVG/1.1/DTD/svg11.dtd">
<svg xmlns="http://www.w3.org/2000/svg" version="1.1" width="60px" height="60px" style="shape-rendering:geometricPrecision; text-rendering:geometricPrecision; image-rendering:optimizeQuality; fill-rule:evenodd; clip-rule:evenodd" xmlns:xlink="http://www.w3.org/1999/xlink">
<g><path style="opacity:0.747" fill="#000000" d="M 25.5,8.5 C 30.3329,8.37457 34.9996,9.2079 39.5,11C 41.5701,11.9476 43.0701,13.4476 44,15.5C 45.9397,12.5983 48.4397,11.5983 51.5,12.5C 50.018,14.4829 48.3513,16.3163 46.5,18C 53.9111,32.943 49.9111,43.6097 34.5,50C 21.1454,51.9105 12.6454,46.4105 9,33.5C 8.01687,20.7812 13.5169,12.4479 25.5,8.5 Z M 26.5,12.5 C 31.9379,12.4788 36.9379,13.9788 41.5,17C 36.0319,21.4666 30.8653,26.3 26,31.5C 23.278,28.5564 20.1113,26.2231 16.5,24.5C 15.4173,25.365 15.2506,26.365 16,27.5C 18.4583,32.2529 21.2916,36.7529 24.5,41C 26.7695,41.7581 28.9361,41.5914 31,40.5C 34.8354,33.4923 39.1687,26.8256 44,20.5C 48.6373,32.3882 45.1373,40.8882 33.5,46C 22.6883,47.5191 15.855,43.0191 13,32.5C 12.2871,22.2465 16.7871,15.5798 26.5,12.5 Z"/></g>
</svg>
