<?xml version="1.0" encoding="UTF-8"?>
<svg version="1.1" xmlns="http://www.w3.org/2000/svg" width="2000" height="2000">
<path d="M0 0 C2.33403434 0.23228959 4.6690167 0.45079336 7.00469971 0.66583252 C58.75280757 5.46307341 109.91014963 14.53025862 160.28936768 27.22784424 C160.97323547 27.39993408 161.65710327 27.57202393 162.36169434 27.74932861 C181.543655 32.59017271 200.46335105 38.15454304 219.28936768 44.22784424 C220.60021928 44.64831923 221.91109201 45.06872836 223.22198486 45.48907471 C286.83642274 65.93970311 349.81759029 92.56593872 407.42315674 126.54229736 C410.12137579 128.12905242 412.82942277 129.69789702 415.54116821 131.26139832 C429.61601925 139.37875923 443.51383816 147.68966405 457.02911377 156.71905518 C459.28296969 158.22357339 461.54484108 159.71529486 463.80889893 161.20440674 C491.34929219 179.36800886 517.93905457 198.83786654 543.46466064 219.73516846 C545.07160463 221.04970626 546.68215958 222.35982726 548.29327393 223.66925049 C558.35833157 231.85901355 568.25697461 240.19433089 577.81671143 248.97003174 C579.90804706 250.87965575 582.02195632 252.75115676 584.16436768 254.60284424 C592.48165848 261.84418161 600.51715412 269.37469281 608.25811768 277.22784424 C610.14649243 279.08716708 612.0857952 280.82172508 614.10186768 282.54034424 C621.78225547 289.14547774 628.89131498 296.45654021 635.44952393 304.16925049 C637.79433063 306.79284525 640.28587405 309.25752894 642.78936768 311.72784424 C646.4934656 315.38776427 650.04224536 319.11728219 653.42218018 323.07940674 C655.31723683 325.25991126 657.2688886 327.38166955 659.23419189 329.49884033 C663.97318407 334.6067264 668.48193847 339.82789651 672.85186768 345.25909424 C675.71863571 348.75067069 678.68730086 352.1429397 681.66436768 355.54034424 C687.27457453 361.96868936 692.6040485 368.56665635 697.81329346 375.32208252 C699.40808247 377.38111709 701.01749059 379.42813313 702.62921143 381.47393799 C710.24600798 391.16283424 717.59935924 401.00757416 724.74102783 411.05157471 C726.22433548 413.13643821 727.71517418 415.21571944 729.20733643 417.29425049 C747.18707671 442.4409741 763.79063789 468.48883638 779.28936768 495.22784424 C779.82175049 496.14549561 780.3541333 497.06314697 780.90264893 498.00860596 C789.18940558 512.34661041 796.96489778 526.92121546 804.48028564 541.67706299 C805.69143686 544.05425371 806.90564295 546.42951666 808.12579346 548.80206299 C848.43474276 627.24691867 876.95814319 712.12320585 909.60186768 900.16534424 C909.71517929 901.2587764 909.71517929 901.2587764 909.83078003 902.3742981 C910.4023806 907.98601937 910.86713269 913.60302325 911.28936768 919.22784424 C911.37550323 920.36629791 911.46163879 921.50475159 911.55038452 922.67770386 C913.27955617 946.34243481 913.65328662 969.94835276 913.60722351 993.67043686 C913.60178424 996.58505126 913.59941641 999.49965755 913.59735107 1002.41427612 C913.56724216 1029.67956945 913.24192522 1056.80591232 910.51397705 1083.95788574 C910.2868631 1086.25315606 910.07499414 1088.54937536 909.86749268 1090.84649658 C903.38946139 1162.13406141 889.08732053 1233.09153382 866.95611572 1301.17150879 C866.28397645 1303.24447146 865.61880374 1305.31955666 864.9553833 1307.39532471 C850.20105985 1353.47997037 831.73746985 1398.24473027 810.12823486 1441.53546143 C808.3529013 1445.09289128 806.60486802 1448.66333309 804.85968018 1452.23565674 C797.84058685 1466.53959972 790.29420562 1480.45412068 782.28936768 1494.22784424 C781.60580747 1495.4101299 780.92255123 1496.59259135 780.23956299 1497.77520752 C772.35816358 1511.41390225 764.45283638 1525.01797739 755.69659424 1538.11993408 C754.12162421 1540.47911022 752.56086879 1542.8473968 751.00030518 1545.21612549 C732.24935371 1573.60119555 712.32981324 1601.08347703 690.77764893 1627.40753174 C689.47527389 1629.00046288 688.17870736 1630.59813944 686.88311768 1632.19659424 C678.62455521 1642.37018568 670.09592804 1652.31005809 661.28936768 1662.01300049 C659.49333239 1664.00196926 657.72983464 1666.01347618 655.97686768 1668.04034424 C648.70730564 1676.37251047 641.16388477 1684.43457025 633.28936768 1692.19659424 C631.43004484 1694.084969 629.69548683 1696.02427177 627.97686768 1698.04034424 C621.37173417 1705.72073203 614.06067171 1712.82979154 606.34796143 1719.38800049 C603.72436666 1721.7328072 601.25968297 1724.22435062 598.78936768 1726.72784424 C595.12944764 1730.43194216 591.39992972 1733.98072192 587.43780518 1737.36065674 C585.25730065 1739.2557134 583.13554236 1741.20736516 581.01837158 1743.17266846 C575.91048552 1747.91166063 570.68931541 1752.42041503 565.25811768 1756.79034424 C561.76654123 1759.65711227 558.37427221 1762.62577742 554.97686768 1765.60284424 C548.54852255 1771.21305109 541.95055556 1776.54252506 535.19512939 1781.75177002 C533.13609482 1783.34655903 531.08907878 1784.95596715 529.04327393 1786.56768799 C519.35437768 1794.18448455 509.50963776 1801.53783581 499.46563721 1808.67950439 C497.3807737 1810.16281204 495.30149247 1811.65365074 493.22296143 1813.14581299 C468.07623781 1831.12555327 442.02837553 1847.72911446 415.28936768 1863.22784424 C414.37171631 1863.76022705 413.45406494 1864.29260986 412.50860596 1864.84112549 C398.15662106 1873.13596225 383.56729582 1880.91543015 368.79620361 1888.43634033 C365.34045356 1890.20174648 361.89677374 1891.98916749 358.45343018 1893.77862549 C326.42098559 1910.27322691 293.04419216 1924.1271327 259.22796631 1936.51544189 C257.32421237 1937.2150394 255.42314092 1937.92146858 253.52276611 1938.63018799 C175.29404516 1967.7059853 92.759596 1985.35149324 9.78936768 1993.54034424 C9.03222473 1993.61588531 8.27508179 1993.69142639 7.49499512 1993.76925659 C1.76516929 1994.3307433 -3.96977319 1994.79496196 -9.71063232 1995.22784424 C-10.82305298 1995.3139798 -11.93547363 1995.40011536 -13.081604 1995.48886108 C-36.4167311 1997.2472877 -59.68836253 1997.59180969 -83.08314514 1997.54590225 C-86.00515803 1997.54025823 -88.92716511 1997.53744009 -91.84918213 1997.53482056 C-119.04735189 1997.49937653 -146.13662079 1997.27137226 -173.21765137 1994.48431396 C-175.85413162 1994.2130815 -178.49151802 1993.95210692 -181.12908936 1993.69171143 C-252.25715613 1986.58453642 -322.62326537 1972.99423159 -390.67047119 1950.88812256 C-392.71085897 1950.22777089 -394.75371401 1949.57569171 -396.79754639 1948.92608643 C-430.17314859 1938.30335278 -462.76857533 1925.5816994 -494.71063232 1911.22784424 C-495.76299072 1910.75878662 -496.81534912 1910.289729 -497.89959717 1909.80645752 C-525.586492 1897.43293727 -552.99277322 1884.01641251 -579.17645264 1868.70001221 C-581.74538506 1867.20765551 -584.32998584 1865.74687349 -586.92156982 1864.29425049 C-632.76476125 1838.55268826 -676.23333834 1808.0030167 -716.89031982 1774.71612549 C-718.48325097 1773.41375045 -720.08092752 1772.11718392 -721.67938232 1770.82159424 C-731.85297377 1762.56303177 -741.79284618 1754.0344046 -751.49578857 1745.22784424 C-753.48475734 1743.43180895 -755.49626427 1741.66831121 -757.52313232 1739.91534424 C-765.85529855 1732.64578221 -773.91735833 1725.10236133 -781.67938232 1717.22784424 C-783.56775708 1715.3685214 -785.50705985 1713.63396339 -787.52313232 1711.91534424 C-795.20352012 1705.31021074 -802.31257962 1697.99914827 -808.87078857 1690.28643799 C-811.21559528 1687.66284322 -813.7071387 1685.19815954 -816.21063232 1682.72784424 C-819.91473025 1679.0679242 -823.46351001 1675.33840628 -826.84344482 1671.37628174 C-828.73850148 1669.19577721 -830.69015325 1667.07401892 -832.65545654 1664.95684814 C-837.39444871 1659.84896208 -841.90320312 1654.62779197 -846.27313232 1649.19659424 C-849.13990036 1645.70501779 -852.10856551 1642.31274877 -855.08563232 1638.91534424 C-860.69583917 1632.48699912 -866.02531315 1625.88903213 -871.23455811 1619.13360596 C-872.82934712 1617.07457138 -874.43875523 1615.02755534 -876.05047607 1612.98175049 C-884.2190093 1602.59102122 -892.05289251 1591.99930177 -899.71063232 1581.22784424 C-900.73009788 1579.80201602 -901.74962833 1578.37623419 -902.76922607 1576.95050049 C-909.96748305 1566.85195795 -916.89539589 1556.58793403 -923.71063232 1546.22784424 C-924.36467041 1545.24026123 -924.36467041 1545.24026123 -925.03192139 1544.23272705 C-944.96446249 1514.11345632 -962.6316863 1482.69184264 -979.02850342 1450.52471924 C-980.12850649 1448.36877708 -981.23282551 1446.21503015 -982.34197998 1444.06378174 C-1025.48097057 1360.38121841 -1055.28747449 1268.39441113 -1083.02313232 1094.22784424 C-1083.0986734 1093.49461945 -1083.17421448 1092.76139465 -1083.25204468 1092.00595093 C-1083.81782217 1086.41902712 -1084.28182548 1080.82682799 -1084.71063232 1075.22784424 C-1084.79676788 1074.12783081 -1084.88290344 1073.02781738 -1084.97164917 1071.89447021 C-1086.76822647 1048.2403625 -1087.07406938 1024.64271074 -1087.02869034 1000.92780304 C-1087.02304934 997.93380174 -1087.02022935 994.9398061 -1087.01760864 991.94580078 C-1086.9826173 964.4524482 -1086.79578031 937.06436368 -1083.96386719 909.69036865 C-1083.69686897 907.09400567 -1083.44294337 904.49657009 -1083.19061279 901.89874268 C-1074.66261714 815.05060774 -1055.22687352 729.68529706 -983.54949951 552.92022705 C-981.77416595 549.3627972 -980.02613267 545.79235538 -978.28094482 542.22003174 C-971.26185149 527.91608876 -963.71547027 514.0015678 -955.71063232 500.22784424 C-955.02707212 499.04555857 -954.34381587 497.86309713 -953.66082764 496.68048096 C-945.77942822 483.04178623 -937.87410103 469.43771108 -929.11785889 456.33575439 C-927.54288886 453.97657826 -925.98213344 451.60829168 -924.42156982 449.23956299 C-905.67178324 420.85625632 -885.75342511 393.37555699 -864.20330811 367.05255127 C-862.8887703 365.44560728 -861.57864931 363.83505233 -860.26922607 362.22393799 C-852.07946302 352.15888035 -843.74414567 342.2602373 -834.96844482 332.70050049 C-833.05882081 330.60916485 -831.18731981 328.4952556 -829.33563232 326.35284424 C-822.09429495 318.03555344 -814.56378376 310.00005779 -806.71063232 302.25909424 C-804.85130949 300.37071948 -803.11675148 298.43141671 -801.39813232 296.41534424 C-794.79299882 288.73495644 -787.48193635 281.62589694 -779.76922607 275.06768799 C-777.14563131 272.72288128 -774.68094762 270.23133786 -772.21063232 267.72784424 C-768.55071229 264.02374632 -764.82119437 260.47496655 -760.85906982 257.09503174 C-758.6785653 255.19997508 -756.55680701 253.24832332 -754.43963623 251.28302002 C-749.33175017 246.54402785 -744.11058005 242.03527345 -738.67938232 237.66534424 C-735.18780588 234.79857621 -731.79553686 231.82991106 -728.39813232 228.85284424 C-721.9697872 223.24263739 -715.37182021 217.91316341 -708.61639404 212.70391846 C-706.55735947 211.10912945 -704.51034343 209.49972133 -702.46453857 207.88800049 C-692.77564233 200.27120393 -682.93090241 192.91785267 -672.88690186 185.77618408 C-670.80203835 184.29287644 -668.72275712 182.80203774 -666.64422607 181.30987549 C-641.49675347 163.32959968 -615.44730757 146.73186945 -588.71063232 131.22784424 C-587.80361572 130.70077881 -586.89659912 130.17371338 -585.96209717 129.63067627 C-570.97589034 120.95304555 -555.69896236 112.88998469 -540.26824951 105.04034424 C-536.93407502 103.34168164 -533.60719261 101.62945892 -530.28094482 99.91534424 C-448.312282 57.97179147 -358.52656346 29.37889084 -178.01574707 0.44073486 C-175.73134357 0.22975704 -173.44882597 0.00405391 -171.16619873 -0.22528076 C-115.07394534 -5.77104526 -56.0769595 -5.64535163 0 0 Z " fill="#6FBCF0" transform="translate(1086.7106323242188,2.77215576171875)"/>
<path d="M0 0 C2.48025511 2.1821659 4.77503223 4.3824144 7.03515625 6.79296875 C7.92255493 7.70115356 7.92255493 7.70115356 8.82788086 8.62768555 C14.5691792 14.72777158 18.57729207 21.42410837 22.59765625 28.73046875 C23.29098566 29.96993871 23.98559196 31.20869516 24.68139648 32.44677734 C26.10803504 34.98654123 27.53010114 37.52878088 28.94921875 40.07275391 C32.10753877 45.72104866 35.3541649 51.31829582 38.59765625 56.91796875 C39.8387342 59.06629503 41.07961962 61.21473256 42.3203125 63.36328125 C42.93277832 64.42321289 43.54524414 65.48314453 44.17626953 66.57519531 C47.2984023 71.9796752 50.41656829 77.38644287 53.53515625 82.79296875 C54.78513747 84.95964625 56.03513746 87.12631292 57.28515625 89.29296875 C119.16015625 196.54296875 181.03515625 303.79296875 409.78515625 700.29296875 C410.7134021 701.9018396 410.7134021 701.9018396 411.66040039 703.54321289 C412.90979327 705.70894653 414.15897963 707.87479933 415.40795898 710.04077148 C418.54056142 715.47271146 421.6767754 720.90250477 424.8203125 726.328125 C428.57297028 732.80818248 432.30926608 739.29748698 436.03515625 745.79296875 C436.62683594 746.82244629 437.21851563 747.85192383 437.828125 748.91259766 C479.71679284 821.99815139 508.81691685 905.00376653 513.27539062 1025.00341797 C513.27974793 1028.00842611 513.29356262 1031.01314272 513.31640625 1034.01806641 C513.5189325 1061.27455829 511.76014952 1087.94117064 507.16015625 1114.85546875 C506.89848972 1116.42772952 506.63685295 1117.99999525 506.37524414 1119.57226562 C504.51789361 1130.59173445 502.32390978 1141.4972441 499.63085938 1152.34521484 C499.01906419 1154.85909129 498.45202427 1157.3798104 497.89453125 1159.90625 C479.50657099 1242.26818083 436.63182087 1323.81557089 381.359375 1387.26269531 C379.96596178 1388.87293021 378.59278694 1390.49882611 377.22265625 1392.12890625 C366.89203364 1404.38525398 355.90195406 1415.99536693 344.59765625 1427.35546875 C343.95989258 1427.99790527 343.32212891 1428.6403418 342.66503906 1429.30224609 C338.85999336 1433.09441684 334.93351834 1436.6900202 330.86791992 1440.20092773 C328.49705511 1442.26039349 326.20683156 1444.40137441 323.91015625 1446.54296875 C318.70583447 1451.28850734 313.26528374 1455.63936283 307.6953125 1459.9453125 C305.23965085 1461.84462869 302.81271042 1463.77310005 300.40625 1465.734375 C291.24203401 1473.19952484 281.77781891 1480.10310092 272.03515625 1486.79296875 C271.43832031 1487.20724121 270.84148438 1487.62151367 270.2265625 1488.04833984 C231.78621167 1514.68854896 189.90500283 1534.88676245 146.03515625 1550.79296875 C144.94138672 1551.19499512 143.84761719 1551.59702148 142.72070312 1552.01123047 C100.99828458 1567.29474482 56.12375075 1576.95382026 11.81103516 1580.56640625 C9.85698529 1580.72589247 7.90357252 1580.89328328 5.95068359 1581.06640625 C-26.86377003 1583.93204374 -60.17709662 1584.03373448 -92.96484375 1580.79296875 C-94.51848633 1580.64021484 -94.51848633 1580.64021484 -96.10351562 1580.484375 C-103.41260362 1579.73732626 -110.68823056 1578.80563166 -117.96484375 1577.79296875 C-119.09422363 1577.64021484 -120.22360352 1577.48746094 -121.38720703 1577.33007812 C-154.88015027 1572.70527892 -187.95107144 1564.63728235 -219.96484375 1553.79296875 C-221.5286377 1553.27017334 -221.5286377 1553.27017334 -223.12402344 1552.73681641 C-245.57971011 1545.17060903 -267.79318475 1535.96070896 -288.78173828 1524.93164062 C-291.43551281 1523.54747552 -294.10452553 1522.19458671 -296.7734375 1520.83984375 C-315.5561098 1511.25737758 -333.61967912 1500.78777259 -350.96484375 1488.79296875 C-351.65175293 1488.31859375 -352.33866211 1487.84421875 -353.04638672 1487.35546875 C-383.2537279 1466.42225149 -411.05686825 1442.70580526 -437.08984375 1416.79296875 C-437.77602783 1416.11145752 -438.46221191 1415.42994629 -439.16918945 1414.7277832 C-443.63717321 1410.2455545 -447.84102259 1405.59177327 -451.96484375 1400.79296875 C-452.98717045 1399.62532859 -454.0105756 1398.45863161 -455.03515625 1397.29296875 C-517.64722664 1325.69570583 -560.60727201 1240.75730069 -596.33984375 1025.98046875 C-596.33975185 1025.2976886 -596.33965996 1024.61490845 -596.33956528 1023.91143799 C-596.33571651 1001.69005293 -595.52204884 979.8029645 -592.25909424 957.79876709 C-591.96555279 955.79780199 -591.68732416 953.79526524 -591.41357422 951.79150391 C-584.54854851 902.1903128 -570.51610366 853.44621946 -549.96484375 807.79296875 C-549.56235413 806.89644592 -549.56235413 806.89644592 -549.1517334 805.98181152 C-538.63006507 782.57060268 -526.66394578 760.25368303 -513.6640625 738.12109375 C-509.73276858 731.41656148 -505.87557687 724.67035558 -502.02734375 717.91796875 C-494.99964125 705.59224488 -487.92243604 693.29574226 -480.82373047 681.01074219 C-477.7015977 675.6062623 -474.58343171 670.19949463 -471.46484375 664.79296875 C-470.21486253 662.62629125 -468.96486254 660.45962458 -467.71484375 658.29296875 C-466.78671875 656.68421875 -466.78671875 656.68421875 -465.83984375 655.04296875 C-403.96484375 547.79296875 -342.08984375 440.54296875 -235.21484375 255.29296875 C-234.59601318 254.22030762 -233.97718262 253.14764648 -233.33959961 252.04248047 C-232.09048857 249.87739804 -230.84130246 247.71235893 -229.59204102 245.54736328 C-226.45282066 240.10681169 -223.31493812 234.66549659 -220.1796875 229.22265625 C-214.15737 218.77090596 -208.11804118 208.3300376 -202.02734375 197.91796875 C-196.28730954 188.10158417 -190.63161038 178.23831381 -184.99853516 168.36035156 C-178.6456048 157.22144371 -172.23937744 146.11364295 -165.82373047 135.01074219 C-162.7015977 129.6062623 -159.58343171 124.19949463 -156.46484375 118.79296875 C-155.21486253 116.62629125 -153.96486254 114.45962458 -152.71484375 112.29296875 C-152.09609375 111.22046875 -151.47734375 110.14796875 -150.83984375 109.04296875 C-143.96484375 97.12630208 -137.08984375 85.20963542 -130.21484375 73.29296875 C-129.59552979 72.21942139 -128.97621582 71.14587402 -128.33813477 70.03979492 C-127.09407583 67.88356662 -125.84977433 65.72747826 -124.60522461 63.5715332 C-121.38727592 57.99631375 -118.17409969 52.41840959 -114.96875 46.8359375 C-111.83622703 41.38271334 -108.69248801 35.93617424 -105.53466797 30.49755859 C-104.58047337 28.85361337 -103.62839447 27.20843449 -102.68017578 25.56103516 C-98.2000064 17.80049711 -93.2906248 11.15257751 -86.96484375 4.79296875 C-86.37574219 4.1690625 -85.78664063 3.54515625 -85.1796875 2.90234375 C-62.4690262 -19.25926859 -24.43418307 -18.18881876 0 0 Z " fill="#FEFEFE" transform="translate(1040.96484375,215.20703125)"/>
<path d="M0 0 C0.33 0 0.66 0 1 0 C1.15968262 0.7213916 1.31936523 1.4427832 1.48388672 2.18603516 C13.31284203 54.93902535 34.47622757 105.64418586 68.48876953 148.10351562 C69.98066678 149.97573821 71.44512432 151.86632777 72.90234375 153.765625 C77.93110093 160.29951714 83.13941939 166.5266371 88.75390625 172.5703125 C90.62254095 174.59168778 92.413538 176.64652343 94.1875 178.75 C101.71366195 187.40508624 110.04559269 195.76235986 118.81640625 203.15625 C120.63960006 204.69569092 122.43025273 206.26017482 124.21484375 207.84375 C175.48534502 253.16554966 237.10106918 285.14210683 300.56787109 309.66601562 C377.44183212 339.54503989 460.79828419 380.47901223 512 448 C513.18722656 449.49660156 513.18722656 449.49660156 514.3984375 451.0234375 C550.72334915 496.9482532 571.50055513 552.97478332 571.26074219 611.63671875 C571.2500622 614.73197227 571.26067971 617.82663941 571.2734375 620.921875 C571.28694413 639.16697681 570.12151958 657.08920574 566.1171875 674.92578125 C565.35647761 678.35428613 564.63564253 681.78711275 563.9453125 685.23046875 C555.22381323 727.62181979 555.22381323 727.62181979 541.6875 736.65625 C540.79611328 737.21505859 540.79611328 737.21505859 539.88671875 737.78515625 C537.82620586 739.11190472 535.88952714 740.549768 533.9375 742.03125 C499.86396099 767.75077718 461.88030547 787.10522644 422 802 C420.99437012 802.37785645 419.98874023 802.75571289 418.95263672 803.14501953 C390.4478878 813.75915499 360.87875934 820.0172581 330.8125 824.25 C329.65572754 824.41330811 328.49895508 824.57661621 327.30712891 824.74487305 C314.14922515 826.51174852 301.00668419 827.1566297 287.73828125 827.203125 C286.42756149 827.20882507 285.11684174 827.21452515 283.7664032 827.22039795 C281.00759509 827.23079311 278.24881505 827.23670825 275.48999023 827.24023438 C272.72813461 827.24458502 269.96659737 827.25836701 267.20483398 827.28125 C243.26551841 827.47544955 219.69479439 826.08525978 196.15039062 821.41796875 C193.70321417 820.94231411 191.25087848 820.50154353 188.796875 820.0625 C179.39400997 818.36206237 170.2392653 816.40779503 161.09228516 813.61132812 C158.60826789 812.88554292 156.10953342 812.23139673 153.60546875 811.578125 C112.43527453 800.72085845 72.44821285 782.60498419 37 759 C36.19014648 758.46197754 35.38029297 757.92395508 34.54589844 757.36962891 C19.62725318 747.41314378 5.57926605 736.71438018 -8 725 C-9.10988281 724.04287109 -9.10988281 724.04287109 -10.2421875 723.06640625 C-12.17166558 721.38876768 -14.08666983 719.69602924 -16 718 C-16.72654785 717.35828857 -17.4530957 716.71657715 -18.20166016 716.05541992 C-24.39602712 710.53846339 -30.33630996 704.81567478 -36.1875 698.9375 C-37.03763672 698.09123047 -37.88777344 697.24496094 -38.76367188 696.37304688 C-43.71791012 691.4111573 -48.45455408 686.33759232 -53 681 C-53.88886817 679.97877068 -54.77816032 678.95791016 -55.66796875 677.9375 C-62.84245814 669.572824 -69.5240635 660.91474662 -76 652 C-76.5559082 651.23800293 -77.11181641 650.47600586 -77.68457031 649.69091797 C-86.95673996 636.91877915 -95.2353314 623.73604045 -103 610 C-103.5347998 609.0620459 -104.06959961 608.1240918 -104.62060547 607.15771484 C-138.32820929 547.75173359 -159.79751975 477.97028047 -160.23828125 409.36328125 C-160.24816574 408.0973967 -160.25805023 406.83151215 -160.26823425 405.52726746 C-160.60013095 352.01204802 -160.60013095 352.01204802 -156 327 C-155.86660217 326.26315979 -155.73320435 325.52631958 -155.59576416 324.76715088 C-144.85015788 265.77810518 -123.17048889 211.72144598 -92.62890625 160.15234375 C-88.69999265 153.51834686 -84.87743514 146.82486637 -81.0625 140.125 C-79.71016805 137.75230021 -78.35721519 135.37995518 -77.00390625 133.0078125 C-76.66987793 132.42227097 -76.33584961 131.83672943 -75.99169922 131.23344421 C-72.51525681 125.1436111 -69.00891991 119.07115717 -65.5 113 C-60.30759561 104.01459169 -55.14318892 95.01363123 -50 86 C-44.24789217 75.91921556 -38.46361312 65.85749664 -32.65551758 55.80883789 C-28.31989457 48.30239464 -24.01431057 40.77931794 -19.7204895 33.24893188 C-14.87263014 24.74781256 -10.01713293 16.25199241 -5.0625 7.8125 C-4.65539795 7.11761475 -4.2482959 6.42272949 -3.82885742 5.70678711 C-1.12590335 1.12590335 -1.12590335 1.12590335 0 0 Z " fill="#6FBCF0" transform="translate(727,849)"/>
<path d="M0 0 C6.67458905 5.47605603 10.78894184 12.25813541 14.91748047 19.70996094 C16.8982606 23.2678648 18.92679328 26.79798816 20.95147705 30.33103943 C22.67752363 33.34356557 24.40162106 36.35714793 26.11962891 39.37426758 C30.47911096 47.02942342 34.88325393 54.65634049 39.3359375 62.2578125 C44.7396568 71.48572613 50.06246205 80.75776085 55.35644531 90.04882812 C59.97096554 98.14525383 64.62689005 106.21587759 69.3359375 114.2578125 C74.7395021 123.48581779 80.06246111 132.7577592 85.35644531 142.04882812 C89.97096554 150.14525383 94.62689005 158.21587759 99.3359375 166.2578125 C104.7395021 175.48581779 110.06246111 184.7577592 115.35644531 194.04882812 C119.97096554 202.14525383 124.62689005 210.21587759 129.3359375 218.2578125 C134.7395021 227.48581779 140.06246111 236.7577592 145.35644531 246.04882812 C149.97096554 254.14525383 154.62689005 262.21587759 159.3359375 270.2578125 C164.7395021 279.48581779 170.06246111 288.7577592 175.35644531 298.04882812 C179.97096554 306.14525383 184.62689005 314.21587759 189.3359375 322.2578125 C194.7395021 331.48581779 200.06246111 340.7577592 205.35644531 350.04882812 C209.97096554 358.14525383 214.62689005 366.21587759 219.3359375 374.2578125 C224.7395021 383.48581779 230.06246111 392.7577592 235.35644531 402.04882812 C239.97096602 410.14525468 244.62697544 418.21582707 249.3359375 426.2578125 C254.3678354 434.8529854 259.33982874 443.48093472 264.2734375 452.1328125 C271.30197257 464.45806446 278.37834184 476.75503317 285.47705078 489.04003906 C288.59918355 494.44451895 291.71734954 499.85128662 294.8359375 505.2578125 C296.08591872 507.42449 297.33591871 509.59115667 298.5859375 511.7578125 C306.0859375 524.7578125 313.5859375 537.7578125 321.0859375 550.7578125 C322.01442505 552.36716675 322.01442505 552.36716675 322.96166992 554.0090332 C324.2092849 556.17159833 325.45684366 558.33419589 326.7043457 560.49682617 C329.86537199 565.97651621 333.02743059 571.45560608 336.19140625 576.93359375 C339.32785025 582.3641225 342.45962853 587.79732437 345.58984375 593.23144531 C347.22971032 596.07369728 348.87588258 598.91220021 350.5234375 601.75 C376.26049216 646.21733595 395.79976 692.87301652 406.3359375 743.2578125 C406.50931641 744.07330566 406.68269531 744.88879883 406.86132812 745.72900391 C415.49337772 787.39399986 416.81424506 831.01106229 412.3359375 873.2578125 C412.18318359 874.72178467 412.18318359 874.72178467 412.02734375 876.21533203 C408.82593714 905.77399828 402.31003387 935.24545673 392.3359375 963.2578125 C391.6759375 963.2578125 391.0159375 963.2578125 390.3359375 963.2578125 C390.17101807 962.57082275 390.00609863 961.88383301 389.83618164 961.17602539 C383.86878991 936.59542408 375.7418733 913.30015845 365.3359375 890.2578125 C364.77036133 888.99106689 364.77036133 888.99106689 364.19335938 887.69873047 C355.12847162 867.51746809 344.00206904 848.38921362 331.3359375 830.2578125 C330.94519043 829.68981934 330.55444336 829.12182617 330.15185547 828.53662109 C323.37950633 818.69775669 315.9871125 809.42463581 308.3359375 800.2578125 C307.54968994 799.31276855 307.54968994 799.31276855 306.74755859 798.34863281 C300.94277325 791.39454732 295.02616779 784.7249173 288.4921875 778.44140625 C286.3359375 776.2578125 286.3359375 776.2578125 284.28515625 773.68359375 C282.52205048 771.48942805 280.80499093 769.79815874 278.6484375 768.0078125 C274.82645714 764.74601108 271.30229376 761.26928742 267.8046875 757.6640625 C255.67081673 745.83737833 242.00767626 735.22538558 228.3359375 725.2578125 C227.04919579 724.29985968 225.76275793 723.34149865 224.4765625 722.3828125 C170.00276072 682.08565882 108.56341373 653.75992185 45.70654297 629.3815918 C34.44307066 624.99597234 23.38682984 620.26509741 12.4069519 615.21109009 C10.66314945 614.40842652 8.91605186 613.61292725 7.16821289 612.8190918 C-33.50743428 594.29504125 -70.52084569 569.27975431 -102.6640625 538.2578125 C-103.18226563 537.76152344 -103.70046875 537.26523437 -104.234375 536.75390625 C-110.933013 530.31830377 -116.9496997 523.57476102 -122.6640625 516.2578125 C-123.39496094 515.34153076 -123.39496094 515.34153076 -124.140625 514.40673828 C-132.5563822 503.85335803 -139.9893285 492.99089902 -146.6640625 481.2578125 C-147.09847656 480.49742676 -147.53289063 479.73704102 -147.98046875 478.95361328 C-154.82699681 466.83168207 -160.14277922 454.41431926 -164.6640625 441.2578125 C-165.00711426 440.27458008 -165.35016602 439.29134766 -165.70361328 438.27832031 C-175.8206559 408.87493572 -180.11380195 377.85630905 -179.9140625 346.8203125 C-179.90990829 345.54279617 -179.90990829 345.54279617 -179.90567017 344.23947144 C-179.86149269 332.62786439 -179.58729235 321.15777863 -177.98486328 309.64111328 C-177.61747723 306.91172007 -177.30920476 304.17842738 -177.00390625 301.44140625 C-175.53632391 288.55451862 -173.46221115 275.92011432 -170.6640625 263.2578125 C-170.51356445 262.5570459 -170.36306641 261.8562793 -170.20800781 261.13427734 C-167.37439447 247.98893862 -163.60707297 235.10827525 -159.6640625 222.2578125 C-159.22368652 220.82139404 -159.22368652 220.82139404 -158.77441406 219.35595703 C-150.68912883 193.33563302 -140.86676784 168.52245458 -126.52050781 145.30957031 C-123.4871824 140.32317266 -120.61682956 135.24400262 -117.73867798 130.16711426 C-116.05385334 127.19686469 -114.360786 124.23132438 -112.66796875 121.265625 C-112.33393539 120.68010864 -111.99990204 120.09459229 -111.65574646 119.49133301 C-107.56753006 112.32941084 -103.43768657 105.19157156 -99.31103516 98.05175781 C-95.0566907 90.68559413 -90.83057195 83.30369061 -86.6171875 75.9140625 C-80.7923501 65.69819382 -74.9276748 55.50748598 -68.96606445 45.37060547 C-65.7502048 39.88868338 -62.60240624 34.37549104 -59.515625 28.8203125 C-58.45253624 26.91887072 -57.3884965 25.017964 -56.32421875 23.1171875 C-55.64578444 21.89856588 -54.97209771 20.6772863 -54.30371094 19.453125 C-49.37641738 10.4306139 -44.1258858 1.72196145 -34.4140625 -2.6796875 C-33.60453125 -3.05996094 -32.795 -3.44023437 -31.9609375 -3.83203125 C-21.35729235 -8.03381581 -9.44872529 -6.17907842 0 0 Z " fill="#6FBCF0" transform="translate(1019.6640625,415.7421875)"/>
</svg>
