<?xml version="1.0" encoding="UTF-8"?>
<!DOCTYPE svg PUBLIC "-//W3C//DTD SVG 1.1//EN" "http://www.w3.org/Graphics/SVG/1.1/DTD/svg11.dtd">
<svg xmlns="http://www.w3.org/2000/svg" version="1.1" width="6048px" height="5405px" style="shape-rendering:geometricPrecision; text-rendering:geometricPrecision; image-rendering:optimizeQuality; fill-rule:evenodd; clip-rule:evenodd" xmlns:xlink="http://www.w3.org/1999/xlink">
<g><path style="opacity:0.999" fill="#000000" d="M 5712.5,-0.5 C 5712.83,-0.5 5713.17,-0.5 5713.5,-0.5C 5714.17,0.833333 5714.83,0.833333 5715.5,-0.5C 5715.83,-0.5 5716.17,-0.5 5716.5,-0.5C 5716.83,0.833333 5717.17,0.833333 5717.5,-0.5C 5717.83,-0.5 5718.17,-0.5 5718.5,-0.5C 5718.83,0.833333 5719.17,0.833333 5719.5,-0.5C 5719.83,-0.5 5720.17,-0.5 5720.5,-0.5C 5720.83,0.833333 5721.17,0.833333 5721.5,-0.5C 5721.83,-0.5 5722.17,-0.5 5722.5,-0.5C 5722.83,0.833333 5723.17,0.833333 5723.5,-0.5C 5723.83,-0.5 5724.17,-0.5 5724.5,-0.5C 5724.83,0.833333 5725.17,0.833333 5725.5,-0.5C 5725.83,-0.5 5726.17,-0.5 5726.5,-0.5C 5726.83,0.833333 5727.17,0.833333 5727.5,-0.5C 5728.17,-0.5 5728.83,-0.5 5729.5,-0.5C 5729.83,0.833333 5730.17,0.833333 5730.5,-0.5C 5731.5,-0.5 5732.5,-0.5 5733.5,-0.5C 5733.83,0.833333 5734.17,0.833333 5734.5,-0.5C 5765.17,-0.5 5795.83,-0.5 5826.5,-0.5C 5826.83,0.833333 5827.17,0.833333 5827.5,-0.5C 5828.17,-0.5 5828.83,-0.5 5829.5,-0.5C 5829.83,0.833333 5830.17,0.833333 5830.5,-0.5C 5831.17,-0.5 5831.83,-0.5 5832.5,-0.5C 5832.83,0.833333 5833.17,0.833333 5833.5,-0.5C 5833.83,-0.5 5834.17,-0.5 5834.5,-0.5C 5834.83,0.833333 5835.17,0.833333 5835.5,-0.5C 5835.83,-0.5 5836.17,-0.5 5836.5,-0.5C 5836.83,0.833333 5837.17,0.833333 5837.5,-0.5C 5837.83,-0.5 5838.17,-0.5 5838.5,-0.5C 5838.83,0.833333 5839.17,0.833333 5839.5,-0.5C 5839.83,-0.5 5840.17,-0.5 5840.5,-0.5C 5840.83,0.833333 5841.17,0.833333 5841.5,-0.5C 5841.83,-0.5 5842.17,-0.5 5842.5,-0.5C 5842.83,0.833333 5843.17,0.833333 5843.5,-0.5C 5843.83,-0.5 5844.17,-0.5 5844.5,-0.5C 5844.83,0.833333 5845.17,0.833333 5845.5,-0.5C 5845.83,-0.5 5846.17,-0.5 5846.5,-0.5C 5847.17,0.833333 5847.83,0.833333 5848.5,-0.5C 5848.83,-0.5 5849.17,-0.5 5849.5,-0.5C 5915.39,0.65114 5981.39,1.65114 6047.5,2.5C 6047.5,2.83333 6047.5,3.16667 6047.5,3.5C 5760.34,322.456 5481.17,647.789 5210,979.5C 4873.16,1392.95 4549.16,1815.95 4238,2248.5C 3909.1,2707.49 3595.1,3176.82 3296,3656.5C 2967.54,4185 2658.2,4725.33 2368,5277.5C 2346.11,5319.95 2324.28,5362.28 2302.5,5404.5C 2302.17,5404.5 2301.83,5404.5 2301.5,5404.5C 2126.13,5025.62 1922.63,4663.95 1691,4319.5C 1466.73,3987.41 1214.06,3677.08 933,3388.5C 646.402,3096.64 335.569,2835.81 0.5,2606C 20.9243,2604.84 41.4243,2604.01 62,2603.5C 65,2603.83 68,2604.17 71,2604.5C 138.94,2603.13 206.94,2601.8 275,2600.5C 279.333,2600.83 283.667,2601.17 288,2601.5C 314.667,2600.83 341.333,2600.17 368,2599.5C 433.783,2599.51 499.783,2599.51 566,2599.5C 648.276,2600.94 729.942,2603.94 811,2608.5C 876.243,2613.34 942.076,2620.84 1008.5,2631C 1192.89,2658.58 1362.89,2722.91 1518.5,2824C 1598.45,2876.93 1674.12,2935.6 1745.5,3000C 1826.97,3074.81 1905.14,3152.97 1980,3234.5C 2077.78,3343.16 2172.95,3453.82 2265.5,3566.5C 2509.71,3162.23 2770.21,2769.23 3047,2387.5C 3354.81,1964.58 3683.48,1557.58 4033,1166.5C 4261.93,913.551 4497.43,666.051 4739.5,424C 4808.45,355.703 4880.12,290.703 4954.5,229C 5009.04,184.718 5067.04,145.384 5128.5,111C 5225.16,60.2283 5327.82,28.5616 5436.5,16C 5499.47,8.10029 5561.63,3.60029 5623,2.5C 5652.1,1.31781 5681.93,0.317814 5712.5,-0.5 Z"/></g>
</svg>
