<?xml version="1.0" encoding="UTF-8"?>
<!DOCTYPE svg PUBLIC "-//W3C//DTD SVG 1.1//EN" "http://www.w3.org/Graphics/SVG/1.1/DTD/svg11.dtd">
<svg xmlns="http://www.w3.org/2000/svg" version="1.1" width="60px" height="60px" style="shape-rendering:geometricPrecision; text-rendering:geometricPrecision; image-rendering:optimizeQuality; fill-rule:evenodd; clip-rule:evenodd" xmlns:xlink="http://www.w3.org/1999/xlink">
<g><path style="opacity:0.974" fill="#020013" d="M 28.5,5.5 C 34.0643,8.38422 39.3976,11.7176 44.5,15.5C 45.6586,19.122 45.8253,22.7887 45,26.5C 39.9184,23.042 34.7517,19.7087 29.5,16.5C 24.2483,19.7087 19.0816,23.042 14,26.5C 13.3333,22.8333 13.3333,19.1667 14,15.5C 19.2874,12.6938 24.1207,9.36043 28.5,5.5 Z"/></g>
<g><path style="opacity:0.978" fill="#020013" d="M 44.5,29.5 C 44.81,32.7131 44.4767,35.7131 43.5,38.5C 38.5637,36.0739 33.7303,33.4072 29,30.5C 24.5434,33.3088 20.0434,35.9755 15.5,38.5C 14.5233,35.7131 14.19,32.7131 14.5,29.5C 19.2625,25.942 24.2625,22.6086 29.5,19.5C 34.7375,22.6086 39.7375,25.942 44.5,29.5 Z"/></g>
<g><path style="opacity:0.462" fill="#01000a" d="M 14.5,29.5 C 14.19,32.7131 14.5233,35.7131 15.5,38.5C 15.44,39.0431 15.1067,39.3764 14.5,39.5C 13.1944,36.0202 13.1944,32.6868 14.5,29.5 Z"/></g>
<g><path style="opacity:0.293" fill="#01000a" d="M 44.5,29.5 C 45.8056,32.6868 45.8056,36.0202 44.5,39.5C 43.8933,39.3764 43.56,39.0431 43.5,38.5C 44.4767,35.7131 44.81,32.7131 44.5,29.5 Z"/></g>
<g><path style="opacity:0.981" fill="#020013" d="M 44.5,43.5 C 44.81,46.7131 44.4767,49.7131 43.5,52.5C 38.8507,49.8408 34.184,47.1742 29.5,44.5C 24.8433,47.1623 20.1767,49.829 15.5,52.5C 14.5233,49.7131 14.19,46.7131 14.5,43.5C 18.9573,39.432 23.9573,36.0986 29.5,33.5C 35.0427,36.0986 40.0427,39.432 44.5,43.5 Z"/></g>
<g><path style="opacity:0.46" fill="#000009" d="M 14.5,43.5 C 14.19,46.7131 14.5233,49.7131 15.5,52.5C 15.44,53.0431 15.1067,53.3764 14.5,53.5C 13.1944,50.0202 13.1944,46.6868 14.5,43.5 Z"/></g>
<g><path style="opacity:0.277" fill="#01000a" d="M 44.5,43.5 C 45.8056,46.6868 45.8056,50.0202 44.5,53.5C 43.8933,53.3764 43.56,53.0431 43.5,52.5C 44.4767,49.7131 44.81,46.7131 44.5,43.5 Z"/></g>
</svg>
