<svg version="1.1" id="Layer_1" xmlns="http://www.w3.org/2000/svg" xmlns:xlink="http://www.w3.org/1999/xlink" x="0px" y="0px"
	 width="100%" viewBox="0 0 512 512" enable-background="new 0 0 512 512" xml:space="preserve">
<path fill="#FFFFFF" opacity="1.000000" stroke="none" 
	d="
M267.000000,1.000001 
	C348.964539,1.000000 430.929077,1.000000 512.946777,1.000000 
	C512.946777,171.557404 512.946777,342.114807 512.946777,513.000000 
	C431.311615,513.000000 349.622772,513.000000 267.556091,512.646179 
	C267.532623,511.943542 267.827545,511.407288 268.250092,511.273193 
	C280.030914,507.534760 288.114288,494.679047 288.096832,482.439880 
	C287.933472,367.941010 288.000000,253.441803 288.000031,138.942688 
	C288.000031,137.776031 287.856873,136.588028 288.026520,135.446564 
	C288.617493,131.470200 289.441895,127.627487 292.995087,124.979027 
	C298.238312,121.070847 303.680511,122.120384 309.371399,127.827461 
	C344.087616,162.642227 378.916351,197.344818 413.631744,232.160370 
	C427.293365,245.861420 451.776733,243.352997 462.169495,227.649689 
	C469.768402,216.167801 468.522491,197.864365 457.282349,186.671387 
	C399.532867,129.164032 342.025024,71.414009 284.243469,13.939041 
	C279.197784,8.920130 272.780304,5.280360 267.000000,1.000001 
z"/>
<path fill="#FFFFFF" opacity="1.000000" stroke="none" 
	d="
M247.000000,513.000000 
	C165.035538,513.000000 83.071068,513.000000 1.053299,513.000000 
	C1.053299,342.442841 1.053299,171.885651 1.053299,1.000000 
	C82.021721,1.000000 163.043884,1.000000 244.437469,1.350202 
	C242.442245,3.062534 239.730804,4.051574 237.775375,5.858673 
	C232.491348,10.741882 227.530319,15.974515 222.438690,21.066057 
	C167.883926,75.619797 113.369415,130.213898 58.729061,184.681778 
	C50.661385,192.723999 45.964279,201.665131 46.919720,213.395859 
	C47.771194,223.850098 52.740711,231.613281 61.486126,236.731949 
	C75.316956,244.827103 91.215622,241.501663 102.299049,230.315063 
	C136.427017,195.869339 170.869339,161.735214 205.048172,127.339569 
	C212.264328,120.077621 223.155197,121.514908 225.667603,132.201279 
	C226.077301,133.943985 225.987793,135.823761 225.988007,137.640213 
	C226.001328,252.617477 225.960968,367.594757 226.056625,482.571930 
	C226.066879,494.903870 231.822891,504.166412 242.848633,510.017059 
	C244.340088,510.808502 245.621399,511.995911 247.000000,513.000000 
z"/>
<path fill="#000000" opacity="1.000000" stroke="none" 
	d="
M247.468414,513.000000 
	C245.621399,511.995911 244.340088,510.808502 242.848633,510.017059 
	C231.822891,504.166412 226.066879,494.903870 226.056625,482.571930 
	C225.960968,367.594757 226.001328,252.617477 225.988007,137.640213 
	C225.987793,135.823761 226.077301,133.943985 225.667603,132.201279 
	C223.155197,121.514908 212.264328,120.077621 205.048172,127.339569 
	C170.869339,161.735214 136.427017,195.869339 102.299049,230.315063 
	C91.215622,241.501663 75.316956,244.827103 61.486126,236.731949 
	C52.740711,231.613281 47.771194,223.850098 46.919720,213.395859 
	C45.964279,201.665131 50.661385,192.723999 58.729061,184.681778 
	C113.369415,130.213898 167.883926,75.619797 222.438690,21.066057 
	C227.530319,15.974515 232.491348,10.741882 237.775375,5.858673 
	C239.730804,4.051574 242.442245,3.062534 244.904449,1.350202 
	C252.020950,1.000000 259.041901,1.000000 266.531433,1.000001 
	C272.780304,5.280360 279.197784,8.920130 284.243469,13.939041 
	C342.025024,71.414009 399.532867,129.164032 457.282349,186.671387 
	C468.522491,197.864365 469.768402,216.167801 462.169495,227.649689 
	C451.776733,243.352997 427.293365,245.861420 413.631744,232.160370 
	C378.916351,197.344818 344.087616,162.642227 309.371399,127.827461 
	C303.680511,122.120384 298.238312,121.070847 292.995087,124.979027 
	C289.441895,127.627487 288.617493,131.470200 288.026520,135.446564 
	C287.856873,136.588028 288.000031,137.776031 288.000031,138.942688 
	C288.000000,253.441803 287.933472,367.941010 288.096832,482.439880 
	C288.114288,494.679047 280.030914,507.534760 268.250092,511.273193 
	C267.827545,511.407288 267.532623,511.943542 267.089111,512.646179 
	C260.645599,513.000000 254.291214,513.000000 247.468414,513.000000 
z"/>
</svg>