<?xml version="1.0" encoding="UTF-8"?>
<svg version="1.1" xmlns="http://www.w3.org/2000/svg" width="512" height="512">
<path d="M0 0 C1.13901512 -0.00642769 1.13901512 -0.00642769 2.30104065 -0.01298523 C3.90389002 -0.01871708 5.50676541 -0.01923723 7.10961914 -0.01489258 C9.55465317 -0.01173393 11.99847494 -0.03519981 14.44335938 -0.06054688 C16.00390473 -0.06282022 17.56445332 -0.0635232 19.125 -0.0625 C19.85222763 -0.07170975 20.57945526 -0.08091949 21.32872009 -0.09040833 C25.76547943 -0.05020739 28.60346493 0.56164648 32.12890625 3.30078125 C33.5516636 6.14629596 33.26053337 8.54813469 33.26757145 11.73135567 C33.27183478 12.73771117 33.27183478 12.73771117 33.27618423 13.76439708 C33.28457114 16.03460409 33.28580255 18.30476034 33.28712463 20.57498169 C33.29168727 22.21012999 33.29668685 23.84527711 33.3020882 25.48042285 C33.31571273 29.99092482 33.3231001 34.50141922 33.32951486 39.01193643 C33.33749992 43.86948809 33.35120418 48.72702391 33.36422729 53.58456421 C33.386017 62.00631338 33.40415234 70.42806414 33.41983223 78.84982681 C33.44250819 91.02640519 33.47065414 103.20296604 33.50015151 115.37952958 C33.54785536 135.13338309 33.59111195 154.88724375 33.6315918 174.64111328 C33.67093253 193.83447832 33.71235533 213.027837 33.7565918 232.22119141 C33.75931607 233.40351621 33.76204034 234.58584101 33.76484717 235.80399384 C33.77852641 241.73514486 33.79224673 247.66629579 33.80598748 253.59744668 C33.91999612 302.83187827 34.02679575 352.06632364 34.12890625 401.30078125 C34.60082901 400.82148415 35.07275177 400.34218704 35.55897522 399.84836578 C47.04675932 388.18385643 58.55662014 376.54163761 70.0914917 364.92369843 C75.66916902 359.30478169 81.23913229 353.6786013 86.79150391 348.03466797 C91.63136058 343.11503776 96.48514837 338.20966485 101.35613346 333.32084608 C103.93455288 330.73200285 106.50548206 328.13660252 109.05984497 325.52400208 C111.91277647 322.60656033 114.79637059 319.72140017 117.68359375 316.83789062 C118.52445023 315.96827194 119.3653067 315.09865326 120.23164368 314.2026825 C126.73155838 307.79285018 126.73155838 307.79285018 131.52003479 307.6287384 C136.0153814 308.46586036 138.3025648 310.37858598 141.34375 313.59375 C141.88495987 314.13679276 142.42616974 314.67983551 142.98377991 315.23933411 C144.11832037 316.38590756 145.24317491 317.54213821 146.35864258 318.70727539 C148.06491571 320.48672678 149.8012237 322.2318937 151.54492188 323.97460938 C152.64643844 325.09578569 153.74611407 326.21877425 154.84375 327.34375 C155.36033676 327.86478806 155.87692352 328.38582611 156.40916443 328.9226532 C159.24424719 331.91017238 161.15888091 334.09160008 161.12890625 338.30078125 C159.12215944 343.13662799 156.3136385 346.54271342 152.63197327 350.17193604 C152.07686913 350.73101457 151.521765 351.29009311 150.94983953 351.86611342 C149.09609171 353.72945206 147.23185693 355.58192008 145.36743164 357.43457031 C144.03296476 358.77146616 142.69914402 360.10900724 141.36592102 361.44714355 C137.74887477 365.07358651 134.12249669 368.69056224 130.49409413 372.30563831 C126.69818096 376.09022887 122.90999047 379.88253553 119.12071228 383.67376709 C112.75795516 390.03740677 106.38924676 396.39504185 100.0168457 402.74902344 C92.64700386 410.09768467 85.28604446 417.45515033 77.929905 424.8175261 C70.85409034 431.89903236 63.77262346 438.9748589 56.68835258 446.04790497 C53.67273659 449.05887368 50.65901664 452.07172162 47.6467762 455.0860672 C44.10146976 458.63325524 40.55121588 462.17541626 36.99705315 465.71372986 C35.69243486 467.01410078 34.38951472 468.3161779 33.08840942 469.62006378 C31.3144595 471.39722953 29.53449049 473.16813752 27.75282288 474.93756104 C27.23735163 475.4568116 26.72188039 475.97606217 26.19078881 476.5110476 C21.55625632 481.08925174 18.67796708 482.55237475 12.19140625 482.56640625 C11.04929687 482.56898438 9.9071875 482.5715625 8.73046875 482.57421875 C7.54195313 482.56648438 6.3534375 482.55875 5.12890625 482.55078125 C3.34613281 482.56238281 3.34613281 482.56238281 1.52734375 482.57421875 C0.38523437 482.57164062 -0.756875 482.5690625 -1.93359375 482.56640625 C-2.97644531 482.56415039 -4.01929688 482.56189453 -5.09375 482.55957031 C-7.97112778 482.29146022 -9.5512715 482.01481472 -11.87109375 480.30078125 C-14.08766295 476.07264964 -14.15245133 472.05684681 -14.12277603 467.39057922 C-14.12713635 466.19893404 -14.12713635 466.19893404 -14.13158476 464.98321521 C-14.13890634 462.31075511 -14.13193135 459.63852304 -14.12506104 456.96606445 C-14.12736461 455.03490487 -14.13054044 453.10374617 -14.13451552 451.1725893 C-14.14288631 445.85757884 -14.13872789 440.54263995 -14.13254309 435.22762918 C-14.12802893 429.49886489 -14.1349972 423.77011314 -14.14050293 418.04135132 C-14.14940967 406.81541089 -14.14746922 395.58949716 -14.14167765 384.36355567 C-14.1371662 375.24233769 -14.13654601 366.12112722 -14.13872528 356.99990845 C-14.13903175 355.70316045 -14.13933821 354.40641245 -14.13965397 353.07036906 C-14.1402934 350.43628939 -14.14094182 347.80220971 -14.14159915 345.16813004 C-14.14714341 321.15654075 -14.14138771 297.1449659 -14.13091395 273.13337894 C-14.12142253 251.20707554 -14.12227178 229.28079538 -14.13183594 207.35449219 C-14.14254193 182.72808918 -14.14675684 158.10170022 -14.14061141 133.47529507 C-14.13997429 130.85074806 -14.13934555 128.22620106 -14.13872528 125.60165405 C-14.13841673 124.31022895 -14.13810818 123.01880384 -14.13779028 121.68824464 C-14.13606133 112.57492563 -14.13898274 103.46161485 -14.14368439 94.34829712 C-14.1492858 83.24660752 -14.14779238 72.14494621 -14.1371229 61.04325986 C-14.13185621 55.37589412 -14.12982639 49.7085756 -14.1364212 44.04121017 C-14.14236216 38.85746353 -14.13913628 33.67380807 -14.1284661 28.49006975 C-14.12622418 26.61060119 -14.12738598 24.731125 -14.13221768 22.85166132 C-14.13826533 20.30465782 -14.13209565 17.75797007 -14.12277603 15.21098328 C-14.12745836 14.47471392 -14.1321407 13.73844455 -14.13696492 12.979864 C-14.10761831 8.98967775 -13.72462434 5.86076077 -11.87109375 2.30078125 C-8.42199303 -0.43158304 -4.20711696 -0.00525799 0 0 Z " fill="#000000" transform="translate(291.87109375,14.69921875)"/>
<path d="M0 0 C1.14210937 -0.00257812 2.28421875 -0.00515625 3.4609375 -0.0078125 C4.64945313 -0.00007812 5.83796875 0.00765625 7.0625 0.015625 C8.84527344 0.00402344 8.84527344 0.00402344 10.6640625 -0.0078125 C11.80617187 -0.00523438 12.94828125 -0.00265625 14.125 0 C15.16785156 0.00225586 16.21070313 0.00451172 17.28515625 0.00683594 C20.16253403 0.27494603 21.74267775 0.55159153 24.0625 2.265625 C26.2790692 6.49375661 26.34385758 10.50955944 26.31418228 15.17582703 C26.31708916 15.97025715 26.31999604 16.76468727 26.32299101 17.58319104 C26.33031259 20.25565114 26.3233376 22.92788321 26.31646729 25.6003418 C26.31877086 27.53150138 26.32194669 29.46266008 26.32592177 31.39381695 C26.33429256 36.70882741 26.33013414 42.0237663 26.32394934 47.33877707 C26.31943518 53.06754136 26.32640345 58.79629311 26.33190918 64.52505493 C26.34081592 75.75099536 26.33887547 86.97690909 26.3330839 98.20285058 C26.32857245 107.32406856 26.32795226 116.44527903 26.33013153 125.5664978 C26.330438 126.8632458 26.33074446 128.1599938 26.33106022 129.49603719 C26.33169965 132.13011686 26.33234807 134.76419654 26.3330054 137.39827621 C26.33854966 161.4098655 26.33279396 185.42144035 26.3223202 209.43302731 C26.31282878 231.35933071 26.31367803 253.28561087 26.32324219 275.21191406 C26.33394818 299.83831707 26.33816309 324.46470603 26.33201766 349.09111118 C26.33138054 351.71565819 26.3307518 354.34020519 26.33013153 356.9647522 C26.3296687 358.90188986 26.3296687 358.90188986 26.32919653 360.87816161 C26.32746758 369.99148062 26.33038899 379.1047914 26.33509064 388.21810913 C26.34069205 399.31979873 26.33919863 410.42146004 26.32852915 421.52314639 C26.32326246 427.19051213 26.32123264 432.85783065 26.32782745 438.52519608 C26.33376841 443.70894272 26.33054253 448.89259818 26.31987235 454.0763365 C26.31763043 455.95580506 26.31879223 457.83528125 26.32362393 459.71474493 C26.32967158 462.26174843 26.3235019 464.80843618 26.31418228 467.35542297 C26.32120578 468.45982701 26.32120578 468.45982701 26.32837117 469.58654225 C26.29902456 473.5767285 25.91603059 476.70564548 24.0625 480.265625 C20.61339928 482.99798929 16.39852321 482.57166424 12.19140625 482.56640625 C11.43206284 482.57069138 10.67271942 482.5749765 9.8903656 482.57939148 C8.28751623 482.58512333 6.68464084 482.58564348 5.08178711 482.58129883 C2.63675308 482.57814018 0.19293131 482.60160606 -2.25195312 482.62695312 C-3.81249848 482.62922647 -5.37304707 482.62992945 -6.93359375 482.62890625 C-8.0244352 482.64272087 -8.0244352 482.64272087 -9.13731384 482.65681458 C-13.57407318 482.61661364 -16.41205868 482.00475977 -19.9375 479.265625 C-21.36025735 476.42011029 -21.06912712 474.01827156 -21.0761652 470.83505058 C-21.07900742 470.16414692 -21.08184964 469.49324325 -21.08477798 468.80200917 C-21.09316489 466.53180216 -21.0943963 464.26164591 -21.09571838 461.99142456 C-21.10028102 460.35627626 -21.1052806 458.72112914 -21.11068195 457.0859834 C-21.12430648 452.57548143 -21.13169385 448.06498703 -21.13810861 443.55446982 C-21.14609367 438.69691816 -21.15979793 433.83938234 -21.17282104 428.98184204 C-21.19461075 420.56009287 -21.21274609 412.13834211 -21.22842598 403.71657944 C-21.25110194 391.54000106 -21.27924789 379.36344021 -21.30874526 367.18687667 C-21.35644911 347.43302316 -21.3997057 327.6791625 -21.44018555 307.92529297 C-21.47952628 288.73192793 -21.52094908 269.53856925 -21.56518555 250.34521484 C-21.56790982 249.16289004 -21.57063409 247.98056524 -21.57344092 246.76241241 C-21.58712016 240.83126139 -21.60084048 234.90011046 -21.61458123 228.96895957 C-21.72858987 179.73452798 -21.8353895 130.50008261 -21.9375 81.265625 C-22.40942276 81.7449221 -22.88134552 82.22421921 -23.36756897 82.71804047 C-34.85535307 94.38254982 -46.36521389 106.02476864 -57.90008545 117.64270782 C-63.47776277 123.26162456 -69.04772604 128.88780495 -74.60009766 134.53173828 C-79.43995433 139.45136849 -84.29374212 144.3567414 -89.16472721 149.24556017 C-91.74314663 151.8344034 -94.31407581 154.42980373 -96.86843872 157.04240417 C-99.72137022 159.95984592 -102.60496434 162.84500608 -105.4921875 165.72851562 C-106.33304398 166.59813431 -107.17390045 167.46775299 -108.04023743 168.36372375 C-114.54015213 174.77355607 -114.54015213 174.77355607 -119.32862854 174.93766785 C-123.82397515 174.10054589 -126.11115855 172.18782027 -129.15234375 168.97265625 C-129.69355362 168.42961349 -130.23476349 167.88657074 -130.79237366 167.32707214 C-131.92691412 166.18049869 -133.05176866 165.02426804 -134.16723633 163.85913086 C-135.87350946 162.07967947 -137.60981745 160.33451255 -139.35351562 158.59179688 C-140.45503219 157.47062056 -141.55470782 156.347632 -142.65234375 155.22265625 C-143.16893051 154.70161819 -143.68551727 154.18058014 -144.21775818 153.64375305 C-147.05284094 150.65623387 -148.96747466 148.47480617 -148.9375 144.265625 C-146.93075319 139.42977826 -144.12223225 136.02369283 -140.44056702 132.39447021 C-139.88546288 131.83539168 -139.33035875 131.27631314 -138.75843328 130.70029283 C-136.90468546 128.83695419 -135.04045068 126.98448617 -133.17602539 125.13183594 C-131.84155851 123.79494009 -130.50773777 122.45739901 -129.17451477 121.1192627 C-125.55746852 117.49281974 -121.93109044 113.87584401 -118.30268788 110.26076794 C-114.50677471 106.47617738 -110.71858422 102.68387072 -106.92930603 98.89263916 C-100.56654891 92.52899948 -94.19784051 86.1713644 -87.82543945 79.81738281 C-80.45559761 72.46872158 -73.09463821 65.11125592 -65.73849875 57.74888015 C-58.66268409 50.66737389 -51.58121721 43.59154735 -44.49694633 36.51850128 C-41.48133034 33.50753257 -38.46761039 30.49468463 -35.45536995 27.48033905 C-31.91006351 23.93315101 -28.35980963 20.39098999 -24.8056469 16.85267639 C-23.50102861 15.55230547 -22.19810847 14.25022835 -20.89700317 12.94634247 C-19.12305325 11.16917672 -17.34308424 9.39826873 -15.56141663 7.62884521 C-15.04594538 7.10959465 -14.53047414 6.59034408 -13.99938256 6.05535865 C-9.36485007 1.47715451 -6.48656083 0.0140315 0 0 Z " fill="#000000" transform="translate(207.9375,14.734375)"/>
</svg>
